<svg width="589" height="188" viewBox="0 0 589 188" fill="none" xmlns="http://www.w3.org/2000/svg">
<rect x="44.3661" y="48.5757" width="541.228" height="136.27" fill="#13AF6B" stroke="white" stroke-width="5.18749"/>
<path d="M238.504 2.01318H17.9567V9.74923H9.86599V16.1959H2V52.7272H9.86599V59.6037H17.9567V67.5547H238.504V59.6037H247.269V52.7272H254.461V16.1959H247.269V9.74923H238.504V2.01318Z" fill="#FE66A3" stroke="white" stroke-width="2.47023"/>
<path d="M79.4755 117.804C77.5458 117.804 75.7821 117.409 74.1843 116.621C72.6073 115.812 71.3104 114.546 70.2937 112.824C69.277 111.101 68.7686 109.047 68.7686 106.661C68.7686 103.133 69.8061 100.394 71.8811 98.444C73.9561 96.4935 76.4876 95.5183 79.4755 95.5183C81.9863 95.5183 84.0924 96.1615 85.7939 97.448C87.4954 98.7137 88.5433 100.436 88.9375 102.615L85.327 103.393C85.0158 101.94 84.3414 100.799 83.3039 99.9691C82.2664 99.1184 80.9903 98.693 79.4755 98.693C77.4213 98.693 75.7406 99.3985 74.4333 100.809C73.1261 102.2 72.4724 104.15 72.4724 106.661C72.4724 109.172 73.1157 111.122 74.4022 112.512C75.7094 113.903 77.4006 114.598 79.4755 114.598C80.9903 114.598 82.2457 114.214 83.2417 113.446C84.2377 112.678 84.912 111.599 85.2648 110.209L88.9064 110.987C88.3669 113.104 87.2672 114.774 85.6072 115.998C83.9472 117.202 81.9033 117.804 79.4755 117.804ZM100.879 117.804C98.5133 117.804 96.5732 117.046 95.0584 115.532C93.5437 113.996 92.7863 112.056 92.7863 109.711C92.7863 107.366 93.5437 105.437 95.0584 103.922C96.5732 102.386 98.5133 101.619 100.879 101.619C103.224 101.619 105.153 102.386 106.668 103.922C108.204 105.437 108.971 107.366 108.971 109.711C108.971 112.056 108.204 113.996 106.668 115.532C105.153 117.046 103.224 117.804 100.879 117.804ZM97.4862 113.415C98.3577 114.37 99.4885 114.847 100.879 114.847C102.269 114.847 103.39 114.37 104.24 113.415C105.112 112.461 105.548 111.226 105.548 109.711C105.548 108.196 105.112 106.962 104.24 106.007C103.39 105.053 102.269 104.576 100.879 104.576C99.4885 104.576 98.3577 105.053 97.4862 106.007C96.6354 106.962 96.21 108.196 96.21 109.711C96.21 111.226 96.6354 112.461 97.4862 113.415ZM113.663 117.555V101.868H117.056V104.482C118.259 102.573 119.982 101.619 122.223 101.619C123.903 101.619 125.263 102.137 126.3 103.175C127.358 104.192 127.887 105.54 127.887 107.221V117.555H124.495V107.999C124.495 107.003 124.204 106.204 123.623 105.603C123.042 104.98 122.264 104.669 121.289 104.669C119.961 104.669 118.923 105.198 118.176 106.256C117.429 107.315 117.056 108.788 117.056 110.676V117.555H113.663ZM141.781 117.43C141.034 117.679 140.204 117.804 139.291 117.804C137.735 117.804 136.479 117.368 135.525 116.496C134.591 115.625 134.124 114.328 134.124 112.606V104.762H131.385V101.868H134.124V97.199H137.517V101.868H141.563V104.762H137.517V112.419C137.517 113.187 137.704 113.778 138.077 114.193C138.471 114.587 139.001 114.785 139.665 114.785C140.412 114.785 141.044 114.66 141.563 114.411L141.781 117.43ZM151.931 101.619C153.965 101.619 155.594 102.169 156.818 103.268C158.042 104.347 158.654 105.852 158.654 107.781V117.555H155.324V115.158C154.868 115.947 154.193 116.59 153.301 117.088C152.409 117.565 151.444 117.804 150.406 117.804C148.85 117.804 147.584 117.368 146.609 116.496C145.634 115.625 145.146 114.515 145.146 113.166C145.146 110.178 147.553 108.435 152.367 107.937L155.324 107.626V107.408C155.324 106.453 155.013 105.696 154.39 105.136C153.789 104.576 152.969 104.295 151.931 104.295C150.977 104.295 150.188 104.565 149.566 105.105C148.943 105.623 148.58 106.35 148.477 107.283L145.426 106.723C145.675 105.188 146.402 103.953 147.605 103.019C148.809 102.086 150.251 101.619 151.931 101.619ZM151.091 115.189C152.398 115.189 153.425 114.785 154.172 113.975C154.919 113.166 155.303 112.108 155.324 110.801V110.147L152.336 110.489C149.763 110.78 148.477 111.641 148.477 113.073C148.477 113.695 148.715 114.204 149.192 114.598C149.67 114.992 150.303 115.189 151.091 115.189ZM171.233 117.804C168.888 117.804 166.99 117.057 165.537 115.563C164.085 114.069 163.358 112.118 163.358 109.711C163.358 107.304 164.085 105.354 165.537 103.86C166.99 102.366 168.888 101.619 171.233 101.619C173.163 101.619 174.771 102.096 176.057 103.05C177.344 104.005 178.122 105.291 178.392 106.91L175.092 107.564C174.926 106.671 174.501 105.955 173.816 105.416C173.152 104.856 172.322 104.576 171.326 104.576C169.978 104.576 168.899 105.042 168.089 105.976C167.28 106.91 166.876 108.155 166.876 109.711C166.876 111.267 167.28 112.512 168.089 113.446C168.899 114.38 169.978 114.847 171.326 114.847C172.322 114.847 173.152 114.587 173.816 114.069C174.48 113.55 174.906 112.834 175.092 111.921L178.423 112.575C178.091 114.214 177.282 115.5 175.995 116.434C174.729 117.347 173.142 117.804 171.233 117.804ZM191.709 117.43C190.962 117.679 190.132 117.804 189.219 117.804C187.662 117.804 186.407 117.368 185.452 116.496C184.519 115.625 184.052 114.328 184.052 112.606V104.762H181.313V101.868H184.052V97.199H187.444V101.868H191.491V104.762H187.444V112.419C187.444 113.187 187.631 113.778 188.005 114.193C188.399 114.587 188.928 114.785 189.592 114.785C190.339 114.785 190.972 114.66 191.491 114.411L191.709 117.43ZM205.315 117.555V95.7672H213.906C216.064 95.7672 217.786 96.3586 219.072 97.5414C220.38 98.7241 221.033 100.301 221.033 102.272C221.033 104.244 220.38 105.821 219.072 107.003C217.786 108.186 216.064 108.777 213.906 108.777H208.988V117.555H205.315ZM208.988 105.603H213.657C214.798 105.603 215.69 105.312 216.333 104.731C216.997 104.129 217.329 103.31 217.329 102.272C217.329 101.235 216.997 100.426 216.333 99.8446C215.69 99.2429 214.798 98.942 213.657 98.942H208.988V105.603ZM239.185 109.12C239.185 109.68 239.164 110.147 239.122 110.52H227.139C227.284 111.869 227.762 112.938 228.571 113.726C229.401 114.515 230.438 114.909 231.683 114.909C232.721 114.909 233.582 114.681 234.267 114.224C234.952 113.747 235.398 113.083 235.605 112.232L238.811 113.042C238.396 114.556 237.556 115.729 236.29 116.559C235.024 117.389 233.468 117.804 231.621 117.804C229.235 117.804 227.336 117.015 225.925 115.438C224.514 113.84 223.809 111.931 223.809 109.711C223.809 107.47 224.483 105.561 225.832 103.984C227.201 102.407 229.079 101.619 231.466 101.619C233.873 101.619 235.761 102.355 237.13 103.829C238.5 105.302 239.185 107.066 239.185 109.12ZM227.295 107.937H235.574C235.47 106.837 235.055 105.955 234.329 105.291C233.624 104.627 232.669 104.295 231.466 104.295C230.387 104.295 229.484 104.617 228.758 105.26C228.031 105.883 227.544 106.775 227.295 107.937ZM253.638 105.167C253.077 104.918 252.403 104.793 251.615 104.793C250.37 104.793 249.332 105.374 248.502 106.536C247.693 107.678 247.288 109.4 247.288 111.703V117.555H243.896V101.868H247.288V104.856C247.703 103.922 248.367 103.154 249.28 102.552C250.193 101.93 251.127 101.619 252.081 101.619C252.766 101.619 253.347 101.712 253.824 101.899L253.638 105.167ZM262.813 117.804C261.049 117.804 259.586 117.358 258.424 116.465C257.283 115.552 256.505 114.463 256.09 113.197L258.891 112.014C259.534 114.069 260.842 115.096 262.813 115.096C263.601 115.096 264.245 114.899 264.743 114.504C265.261 114.11 265.521 113.623 265.521 113.042C265.521 112.419 265.22 111.931 264.618 111.579C264.016 111.226 263.28 110.956 262.408 110.769C261.558 110.562 260.707 110.323 259.856 110.054C259.005 109.763 258.279 109.275 257.677 108.591C257.076 107.906 256.775 107.014 256.775 105.914C256.775 104.669 257.273 103.642 258.269 102.833C259.285 102.023 260.634 101.619 262.315 101.619C263.788 101.619 265.095 101.982 266.237 102.708C267.378 103.414 268.115 104.337 268.447 105.478L265.645 106.661C265.459 105.914 265.044 105.323 264.4 104.887C263.778 104.451 263.093 104.233 262.346 104.233C261.599 104.233 261.008 104.378 260.572 104.669C260.136 104.939 259.918 105.333 259.918 105.852C259.918 106.391 260.219 106.817 260.821 107.128C261.423 107.418 262.149 107.657 263 107.844C263.871 108.03 264.743 108.269 265.614 108.56C266.486 108.85 267.222 109.369 267.824 110.116C268.426 110.863 268.727 111.828 268.727 113.01C268.727 114.38 268.177 115.521 267.077 116.434C265.977 117.347 264.556 117.804 262.813 117.804ZM280.491 117.804C278.126 117.804 276.186 117.046 274.671 115.532C273.156 113.996 272.399 112.056 272.399 109.711C272.399 107.366 273.156 105.437 274.671 103.922C276.186 102.386 278.126 101.619 280.491 101.619C282.836 101.619 284.766 102.386 286.281 103.922C287.816 105.437 288.584 107.366 288.584 109.711C288.584 112.056 287.816 113.996 286.281 115.532C284.766 117.046 282.836 117.804 280.491 117.804ZM277.099 113.415C277.97 114.37 279.101 114.847 280.491 114.847C281.882 114.847 283.002 114.37 283.853 113.415C284.724 112.461 285.16 111.226 285.16 109.711C285.16 108.196 284.724 106.962 283.853 106.007C283.002 105.053 281.882 104.576 280.491 104.576C279.101 104.576 277.97 105.053 277.099 106.007C276.248 106.962 275.823 108.196 275.823 109.711C275.823 111.226 276.248 112.461 277.099 113.415ZM293.276 117.555V101.868H296.669V104.482C297.872 102.573 299.594 101.619 301.835 101.619C303.516 101.619 304.875 102.137 305.913 103.175C306.971 104.192 307.5 105.54 307.5 107.221V117.555H304.107V107.999C304.107 107.003 303.817 106.204 303.236 105.603C302.655 104.98 301.877 104.669 300.902 104.669C299.574 104.669 298.536 105.198 297.789 106.256C297.042 107.315 296.669 108.788 296.669 110.676V117.555H293.276ZM337.168 115.687C335.591 117.098 333.464 117.804 330.788 117.804C328.111 117.804 325.984 117.098 324.407 115.687C322.83 114.255 322.041 112.18 322.041 109.462V95.7672H326.617V109.431C326.617 110.801 326.99 111.828 327.737 112.512C328.505 113.197 329.522 113.54 330.788 113.54C332.053 113.54 333.06 113.197 333.807 112.512C334.574 111.828 334.958 110.801 334.958 109.431V95.7672H339.534V109.462C339.534 112.18 338.745 114.255 337.168 115.687ZM345.026 117.555V95.7672H349.944V117.555H345.026ZM353.623 117.586L363.396 95.7672H368.158L358.354 117.586H353.623ZM386.944 115.687C385.367 117.098 383.24 117.804 380.563 117.804C377.886 117.804 375.759 117.098 374.183 115.687C372.606 114.255 371.817 112.18 371.817 109.462V95.7672H376.392V109.431C376.392 110.801 376.766 111.828 377.513 112.512C378.281 113.197 379.297 113.54 380.563 113.54C381.829 113.54 382.835 113.197 383.582 112.512C384.35 111.828 384.734 110.801 384.734 109.431V95.7672H389.309V109.462C389.309 112.18 388.521 114.255 386.944 115.687ZM411.9 117.555H406.733L402.282 110.209L397.831 117.555H392.633L399.668 105.914L393.536 95.7672H398.734L402.282 101.619L405.799 95.7672H410.997L404.866 105.914L411.9 117.555ZM424.632 117.555V95.7672H432.071C433.606 95.7672 435.038 95.9955 436.366 96.452C437.694 96.8877 438.887 97.5414 439.946 98.4129C441.004 99.2636 441.834 100.405 442.436 101.837C443.058 103.248 443.369 104.856 443.369 106.661C443.369 108.466 443.058 110.085 442.436 111.516C441.834 112.927 441.004 114.069 439.946 114.94C438.887 115.791 437.694 116.445 436.366 116.901C435.038 117.337 433.606 117.555 432.071 117.555H424.632ZM429.456 113.322H431.542C432.476 113.322 433.326 113.208 434.094 112.979C434.883 112.751 435.609 112.388 436.273 111.89C436.958 111.392 437.487 110.697 437.86 109.805C438.234 108.912 438.42 107.864 438.42 106.661C438.42 104.316 437.767 102.615 436.46 101.556C435.152 100.498 433.513 99.9691 431.542 99.9691H429.456V113.322ZM462.768 109.307C462.768 109.991 462.748 110.562 462.706 111.018H451.439C451.895 113.01 453.12 114.006 455.112 114.006C456.792 114.006 457.809 113.332 458.162 111.983L462.457 113.135C462.001 114.608 461.108 115.76 459.78 116.59C458.452 117.399 456.855 117.804 454.987 117.804C452.456 117.804 450.474 116.994 449.042 115.376C447.631 113.737 446.926 111.848 446.926 109.711C446.926 108.342 447.185 107.066 447.704 105.883C448.223 104.7 449.084 103.694 450.287 102.864C451.512 102.034 452.985 101.619 454.707 101.619C456.056 101.619 457.259 101.857 458.318 102.335C459.397 102.791 460.247 103.403 460.87 104.171C461.492 104.939 461.959 105.758 462.27 106.63C462.602 107.501 462.768 108.394 462.768 109.307ZM451.501 107.781H457.882C457.799 106.951 457.488 106.287 456.948 105.789C456.429 105.271 455.682 105.011 454.707 105.011C453.006 105.011 451.937 105.935 451.501 107.781ZM472.553 117.804C470.768 117.804 469.264 117.347 468.04 116.434C466.836 115.521 466.006 114.411 465.55 113.104L469.222 111.672C469.409 112.44 469.803 113.083 470.405 113.602C471.007 114.1 471.723 114.349 472.553 114.349C473.154 114.349 473.642 114.214 474.016 113.944C474.389 113.674 474.576 113.322 474.576 112.886C474.576 112.45 474.285 112.097 473.704 111.828C473.144 111.558 472.449 111.33 471.619 111.143C470.81 110.935 470.001 110.686 469.191 110.396C468.382 110.085 467.687 109.576 467.106 108.871C466.546 108.145 466.266 107.232 466.266 106.132C466.266 104.866 466.774 103.797 467.791 102.926C468.828 102.054 470.187 101.619 471.868 101.619C473.466 101.619 474.866 101.971 476.07 102.677C477.294 103.382 478.083 104.306 478.435 105.447L474.763 106.972C474.576 106.308 474.213 105.8 473.673 105.447C473.154 105.074 472.605 104.887 472.024 104.887C471.505 104.887 471.08 104.991 470.748 105.198C470.436 105.406 470.281 105.675 470.281 106.007C470.281 106.381 470.488 106.692 470.903 106.941C471.318 107.169 471.837 107.346 472.459 107.47C473.082 107.574 473.756 107.74 474.482 107.968C475.229 108.196 475.914 108.466 476.537 108.777C477.159 109.068 477.678 109.566 478.093 110.271C478.508 110.956 478.715 111.797 478.715 112.793C478.715 114.183 478.134 115.366 476.972 116.341C475.831 117.316 474.358 117.804 472.553 117.804ZM482.76 95.5183H487.584V99.9069H482.76V95.5183ZM482.853 117.555V101.868H487.429V117.555H482.853ZM502.952 101.868H507.465V116.434C507.465 118.53 506.728 120.221 505.255 121.508C503.782 122.815 501.842 123.468 499.435 123.468C497.588 123.468 495.98 123.012 494.61 122.099C493.262 121.186 492.452 119.993 492.183 118.52L496.353 117.866C496.457 118.488 496.799 118.976 497.38 119.329C497.961 119.702 498.646 119.889 499.435 119.889C500.493 119.889 501.344 119.609 501.987 119.049C502.651 118.509 502.983 117.804 502.983 116.932V115.438C502.132 116.517 500.783 117.057 498.937 117.057C496.716 117.057 494.963 116.362 493.677 114.971C492.39 113.581 491.747 111.703 491.747 109.338C491.747 106.972 492.38 105.094 493.645 103.704C494.932 102.314 496.665 101.619 498.843 101.619C500.669 101.619 502.039 102.148 502.952 103.206V101.868ZM499.684 113.166C500.763 113.166 501.613 112.824 502.236 112.139C502.879 111.433 503.201 110.5 503.201 109.338C503.201 108.176 502.879 107.252 502.236 106.568C501.613 105.862 500.763 105.509 499.684 105.509C498.625 105.509 497.775 105.862 497.131 106.568C496.509 107.252 496.198 108.176 496.198 109.338C496.198 110.5 496.509 111.433 497.131 112.139C497.775 112.824 498.625 113.166 499.684 113.166ZM512.592 117.555V101.868H517.167V103.953C518.226 102.397 519.823 101.619 521.961 101.619C523.683 101.619 525.073 102.137 526.131 103.175C527.19 104.212 527.719 105.592 527.719 107.315V117.555H523.175V108.528C523.175 107.678 522.926 106.993 522.428 106.474C521.95 105.935 521.297 105.665 520.467 105.665C518.267 105.665 517.167 107.335 517.167 110.676V117.555H512.592ZM547.876 109.307C547.876 109.991 547.855 110.562 547.813 111.018H536.546C537.003 113.01 538.227 114.006 540.219 114.006C541.9 114.006 542.916 113.332 543.269 111.983L547.564 113.135C547.108 114.608 546.216 115.76 544.888 116.59C543.56 117.399 541.962 117.804 540.094 117.804C537.563 117.804 535.581 116.994 534.149 115.376C532.738 113.737 532.033 111.848 532.033 109.711C532.033 108.342 532.292 107.066 532.811 105.883C533.33 104.7 534.191 103.694 535.394 102.864C536.619 102.034 538.092 101.619 539.814 101.619C541.163 101.619 542.366 101.857 543.425 102.335C544.504 102.791 545.354 103.403 545.977 104.171C546.599 104.939 547.066 105.758 547.378 106.63C547.71 107.501 547.876 108.394 547.876 109.307ZM536.608 107.781H542.989C542.906 106.951 542.595 106.287 542.055 105.789C541.536 105.271 540.789 105.011 539.814 105.011C538.113 105.011 537.044 105.935 536.608 107.781ZM562.792 106.256C562.252 106.007 561.588 105.883 560.8 105.883C559.659 105.883 558.704 106.37 557.936 107.346C557.169 108.3 556.785 109.815 556.785 111.89V117.555H552.209V101.868H556.785V104.576C557.138 103.746 557.76 103.05 558.652 102.49C559.545 101.909 560.458 101.619 561.391 101.619C562.055 101.619 562.616 101.702 563.072 101.868L562.792 106.256ZM229.653 153.804C227.723 153.804 225.96 153.409 224.362 152.621C222.785 151.812 221.488 150.546 220.471 148.824C219.455 147.101 218.946 145.047 218.946 142.661C218.946 139.133 219.984 136.394 222.059 134.444C224.134 132.493 226.665 131.518 229.653 131.518C232.164 131.518 234.27 132.161 235.972 133.448C237.673 134.714 238.721 136.436 239.115 138.615L235.505 139.393C235.193 137.94 234.519 136.799 233.482 135.969C232.444 135.118 231.168 134.693 229.653 134.693C227.599 134.693 225.918 135.398 224.611 136.809C223.304 138.2 222.65 140.15 222.65 142.661C222.65 145.172 223.293 147.122 224.58 148.512C225.887 149.903 227.578 150.598 229.653 150.598C231.168 150.598 232.423 150.214 233.419 149.446C234.415 148.678 235.09 147.599 235.442 146.209L239.084 146.987C238.545 149.104 237.445 150.774 235.785 151.998C234.125 153.202 232.081 153.804 229.653 153.804ZM251.056 153.804C248.691 153.804 246.751 153.046 245.236 151.532C243.721 149.996 242.964 148.056 242.964 145.711C242.964 143.366 243.721 141.437 245.236 139.922C246.751 138.386 248.691 137.619 251.056 137.619C253.401 137.619 255.331 138.386 256.846 139.922C258.381 141.437 259.149 143.366 259.149 145.711C259.149 148.056 258.381 149.996 256.846 151.532C255.331 153.046 253.401 153.804 251.056 153.804ZM247.664 149.415C248.535 150.37 249.666 150.847 251.056 150.847C252.447 150.847 253.567 150.37 254.418 149.415C255.289 148.461 255.725 147.226 255.725 145.711C255.725 144.196 255.289 142.962 254.418 142.007C253.567 141.053 252.447 140.576 251.056 140.576C249.666 140.576 248.535 141.053 247.664 142.007C246.813 142.962 246.388 144.196 246.388 145.711C246.388 147.226 246.813 148.461 247.664 149.415ZM263.841 153.555V137.868H267.234V140.513C268.188 138.584 269.724 137.619 271.84 137.619C273.106 137.619 274.164 137.888 275.015 138.428C275.886 138.967 276.488 139.735 276.82 140.731C277.256 139.818 277.93 139.071 278.843 138.49C279.756 137.909 280.804 137.619 281.987 137.619C283.668 137.619 285.006 138.117 286.002 139.113C287.019 140.088 287.527 141.374 287.527 142.972V153.555H284.134V143.813C284.134 142.817 283.854 142.028 283.294 141.447C282.755 140.845 281.997 140.544 281.022 140.544C279.881 140.544 278.978 141.011 278.314 141.945C277.671 142.858 277.349 144.082 277.349 145.618V153.555H273.988V143.813C273.988 142.817 273.718 142.028 273.178 141.447C272.639 140.845 271.882 140.544 270.906 140.544C269.765 140.544 268.863 141.011 268.199 141.945C267.555 142.879 267.234 144.103 267.234 145.618V153.555H263.841ZM293.057 159.219V137.868H296.45V139.86C296.906 139.196 297.57 138.656 298.442 138.241C299.313 137.826 300.278 137.619 301.336 137.619C303.619 137.619 305.414 138.366 306.721 139.86C308.049 141.354 308.713 143.304 308.713 145.711C308.713 148.118 308.028 150.069 306.659 151.563C305.31 153.057 303.474 153.804 301.15 153.804C300.195 153.804 299.292 153.617 298.442 153.243C297.591 152.87 296.927 152.372 296.45 151.749V159.219H293.057ZM297.477 149.446C298.307 150.38 299.407 150.847 300.776 150.847C302.146 150.847 303.245 150.38 304.075 149.446C304.905 148.492 305.32 147.247 305.32 145.711C305.32 144.155 304.905 142.91 304.075 141.976C303.245 141.042 302.146 140.576 300.776 140.576C299.407 140.576 298.307 141.042 297.477 141.976C296.647 142.91 296.232 144.155 296.232 145.711C296.232 147.247 296.647 148.492 297.477 149.446ZM327.933 145.12C327.933 145.68 327.912 146.147 327.871 146.52H315.888C316.033 147.869 316.51 148.938 317.319 149.726C318.149 150.515 319.187 150.909 320.432 150.909C321.469 150.909 322.331 150.681 323.015 150.224C323.7 149.747 324.146 149.083 324.354 148.232L327.56 149.042C327.145 150.556 326.304 151.729 325.038 152.559C323.773 153.389 322.216 153.804 320.37 153.804C317.983 153.804 316.085 153.015 314.674 151.438C313.263 149.84 312.557 147.931 312.557 145.711C312.557 143.47 313.232 141.561 314.58 139.984C315.95 138.407 317.828 137.619 320.214 137.619C322.621 137.619 324.509 138.355 325.879 139.829C327.248 141.302 327.933 143.066 327.933 145.12ZM316.043 143.937H324.323C324.219 142.837 323.804 141.955 323.078 141.291C322.372 140.627 321.418 140.295 320.214 140.295C319.135 140.295 318.232 140.617 317.506 141.26C316.78 141.883 316.292 142.775 316.043 143.937ZM341.303 153.43C340.556 153.679 339.726 153.804 338.813 153.804C337.256 153.804 336.001 153.368 335.047 152.496C334.113 151.625 333.646 150.328 333.646 148.606V140.762H330.907V137.868H333.646V133.199H337.039V137.868H341.085V140.762H337.039V148.419C337.039 149.187 337.225 149.778 337.599 150.193C337.993 150.587 338.522 150.785 339.186 150.785C339.933 150.785 340.566 150.66 341.085 150.411L341.303 153.43ZM347.401 135.253C346.778 135.253 346.26 135.046 345.845 134.631C345.43 134.195 345.222 133.676 345.222 133.074C345.222 132.452 345.43 131.933 345.845 131.518C346.26 131.083 346.778 130.865 347.401 130.865C348.044 130.865 348.573 131.083 348.988 131.518C349.424 131.933 349.642 132.452 349.642 133.074C349.642 133.676 349.424 134.195 348.988 134.631C348.573 135.046 348.044 135.253 347.401 135.253ZM345.72 153.555V137.868H349.113V153.555H345.72ZM363.595 153.43C362.848 153.679 362.018 153.804 361.105 153.804C359.548 153.804 358.293 153.368 357.339 152.496C356.405 151.625 355.938 150.328 355.938 148.606V140.762H353.199V137.868H355.938V133.199H359.331V137.868H363.377V140.762H359.331V148.419C359.331 149.187 359.517 149.778 359.891 150.193C360.285 150.587 360.814 150.785 361.478 150.785C362.225 150.785 362.858 150.66 363.377 150.411L363.595 153.43ZM369.693 135.253C369.07 135.253 368.552 135.046 368.137 134.631C367.722 134.195 367.514 133.676 367.514 133.074C367.514 132.452 367.722 131.933 368.137 131.518C368.552 131.083 369.07 130.865 369.693 130.865C370.336 130.865 370.865 131.083 371.28 131.518C371.716 131.933 371.934 132.452 371.934 133.074C371.934 133.676 371.716 134.195 371.28 134.631C370.865 135.046 370.336 135.253 369.693 135.253ZM368.012 153.555V137.868H371.405V153.555H368.012ZM384.237 153.804C381.872 153.804 379.931 153.046 378.417 151.532C376.902 149.996 376.145 148.056 376.145 145.711C376.145 143.366 376.902 141.437 378.417 139.922C379.931 138.386 381.872 137.619 384.237 137.619C386.582 137.619 388.512 138.386 390.026 139.922C391.562 141.437 392.33 143.366 392.33 145.711C392.33 148.056 391.562 149.996 390.026 151.532C388.512 153.046 386.582 153.804 384.237 153.804ZM380.844 149.415C381.716 150.37 382.847 150.847 384.237 150.847C385.627 150.847 386.748 150.37 387.599 149.415C388.47 148.461 388.906 147.226 388.906 145.711C388.906 144.196 388.47 142.962 387.599 142.007C386.748 141.053 385.627 140.576 384.237 140.576C382.847 140.576 381.716 141.053 380.844 142.007C379.994 142.962 379.568 144.196 379.568 145.711C379.568 147.226 379.994 148.461 380.844 149.415ZM397.022 153.555V137.868H400.414V140.482C401.618 138.573 403.34 137.619 405.581 137.619C407.262 137.619 408.621 138.137 409.658 139.175C410.717 140.192 411.246 141.54 411.246 143.221V153.555H407.853V143.999C407.853 143.003 407.563 142.204 406.982 141.603C406.401 140.98 405.622 140.669 404.647 140.669C403.319 140.669 402.282 141.198 401.535 142.256C400.788 143.315 400.414 144.788 400.414 146.676V153.555H397.022Z" fill="white"/>
<path d="M90.2598 44.5417C87.4559 44.5417 85.0736 43.6201 83.1128 41.777C81.152 39.9339 80.1717 37.3457 80.1717 34.0124C80.1717 30.6791 81.1717 28.0909 83.1716 26.2478C85.1912 24.4047 87.6421 23.4832 90.5245 23.4832C92.995 23.4832 95.0538 24.091 96.7008 25.3067C98.3479 26.5223 99.3675 28.1988 99.7596 30.336L95.8185 31.1595C95.5636 29.8654 94.9558 28.836 93.995 28.0713C93.0342 27.3066 91.8676 26.9243 90.4951 26.9243C88.6127 26.9243 87.0931 27.5517 85.9363 28.8066C84.7794 30.0615 84.201 31.7968 84.201 34.0124C84.201 36.2085 84.7794 37.9339 85.9363 39.1888C87.0931 40.4437 88.5931 41.0711 90.4362 41.0711C91.9852 41.0711 93.2499 40.6594 94.2303 39.8359C95.2107 38.9927 95.7499 37.8947 95.8479 36.5418H89.7304V33.3066H99.5537V44.3064H95.9362V41.8064C95.4852 42.6299 94.7401 43.2966 93.7009 43.8064C92.6617 44.2966 91.5146 44.5417 90.2598 44.5417ZM109.64 29.2478C111.621 29.2478 113.199 29.7772 114.376 30.836C115.572 31.8752 116.17 33.3556 116.17 35.2771V44.3064H112.582V42.1594C112.17 42.8848 111.552 43.4633 110.729 43.8946C109.925 44.326 109.062 44.5417 108.14 44.5417C106.69 44.5417 105.503 44.1299 104.582 43.3064C103.66 42.4633 103.199 41.4045 103.199 40.13C103.199 37.3065 105.405 35.6595 109.817 35.1889L112.582 34.9242V34.7771C112.582 33.934 112.317 33.2771 111.787 32.8066C111.258 32.3164 110.542 32.0713 109.64 32.0713C108.837 32.0713 108.16 32.3066 107.611 32.7771C107.082 33.2477 106.778 33.8752 106.699 34.6595L103.405 34.0712C103.641 32.6203 104.337 31.4536 105.493 30.5713C106.67 29.689 108.052 29.2478 109.64 29.2478ZM108.964 41.8064C110.082 41.8064 110.964 41.4339 111.611 40.6888C112.258 39.9437 112.582 39.0124 112.582 37.8947V37.5712L109.758 37.8947C108.797 38.0124 108.062 38.2575 107.552 38.63C107.042 39.0025 106.788 39.4633 106.788 40.0123C106.788 40.5417 106.984 40.9731 107.376 41.3064C107.768 41.6398 108.297 41.8064 108.964 41.8064ZM129.207 44.1593C128.501 44.4142 127.707 44.5417 126.825 44.5417C125.256 44.5417 123.991 44.1103 123.031 43.2476C122.07 42.3849 121.59 41.1202 121.59 39.4535V32.6007H119.09V29.4831H121.59V25.1302H125.295V29.4831H129.031V32.6007H125.295V39.1006C125.295 39.7869 125.462 40.3261 125.795 40.7182C126.148 41.0908 126.619 41.277 127.207 41.277C127.893 41.277 128.472 41.1594 128.942 40.9241L129.207 44.1593ZM133.387 44.3064V23.4832H137.093V31.7772C138.113 30.0909 139.681 29.2478 141.799 29.2478C143.466 29.2478 144.799 29.738 145.799 30.7184C146.819 31.6987 147.328 32.9928 147.328 34.6007V44.3064H143.623V35.5124C143.623 34.5908 143.358 33.8654 142.828 33.336C142.299 32.8066 141.583 32.5419 140.681 32.5419C139.544 32.5419 138.662 33.0124 138.034 33.9536C137.407 34.8752 137.093 36.1791 137.093 37.8653V44.3064H133.387ZM157.496 29.2478C159.476 29.2478 161.055 29.7772 162.231 30.836C163.427 31.8752 164.025 33.3556 164.025 35.2771V44.3064H160.437V42.1594C160.025 42.8848 159.408 43.4633 158.584 43.8946C157.78 44.326 156.918 44.5417 155.996 44.5417C154.545 44.5417 153.359 44.1299 152.437 43.3064C151.516 42.4633 151.055 41.4045 151.055 40.13C151.055 37.3065 153.261 35.6595 157.672 35.1889L160.437 34.9242V34.7771C160.437 33.934 160.172 33.2771 159.643 32.8066C159.114 32.3164 158.398 32.0713 157.496 32.0713C156.692 32.0713 156.016 32.3066 155.467 32.7771C154.937 33.2477 154.633 33.8752 154.555 34.6595L151.261 34.0712C151.496 32.6203 152.192 31.4536 153.349 30.5713C154.525 29.689 155.908 29.2478 157.496 29.2478ZM156.819 41.8064C157.937 41.8064 158.819 41.4339 159.467 40.6888C160.114 39.9437 160.437 39.0124 160.437 37.8947V37.5712L157.614 37.8947C156.653 38.0124 155.918 38.2575 155.408 38.63C154.898 39.0025 154.643 39.4633 154.643 40.0123C154.643 40.5417 154.839 40.9731 155.231 41.3064C155.623 41.6398 156.153 41.8064 156.819 41.8064ZM168.527 44.3064V29.4831H172.233V31.7183C172.723 30.9733 173.37 30.3752 174.174 29.9242C174.998 29.4733 175.919 29.2478 176.939 29.2478C178.566 29.2478 179.87 29.738 180.85 30.7184C181.85 31.6987 182.35 32.9928 182.35 34.6007V44.3064H178.645V35.483C178.645 34.6007 178.39 33.8948 177.88 33.3654C177.37 32.8164 176.684 32.5419 175.821 32.5419C174.684 32.5419 173.801 33.0026 173.174 33.9242C172.547 34.8457 172.233 36.1398 172.233 37.8065V44.3064H168.527Z" fill="black"/>
</svg>
