<svg width="589" height="188" viewBox="0 0 589 188" fill="none" xmlns="http://www.w3.org/2000/svg">
<rect x="44.3662" y="48.5757" width="541.228" height="136.27" fill="#13AF6B" stroke="white" stroke-width="5.18749"/>
<path d="M238.504 2.01318H17.9567V9.74923H9.86599V16.1959H2V52.7272H9.86599V59.6037H17.9567V67.5547H238.504V59.6037H247.269V52.7272H254.461V16.1959H247.269V9.74923H238.504V2.01318Z" fill="#43ACFF" stroke="white" stroke-width="2.47023"/>
<path d="M108.35 117.804C106.42 117.804 104.656 117.409 103.058 116.621C101.481 115.812 100.185 114.546 99.1678 112.824C98.1511 111.101 97.6427 109.047 97.6427 106.661C97.6427 103.133 98.6802 100.394 100.755 98.444C102.83 96.4935 105.362 95.5183 108.35 95.5183C110.86 95.5183 112.967 96.1615 114.668 97.448C116.37 98.7137 117.417 100.436 117.812 102.615L114.201 103.393C113.89 101.94 113.216 100.799 112.178 99.9691C111.141 99.1184 109.864 98.693 108.35 98.693C106.295 98.693 104.615 99.3985 103.307 100.809C102 102.2 101.347 104.15 101.347 106.661C101.347 109.172 101.99 111.122 103.276 112.512C104.584 113.903 106.275 114.598 108.35 114.598C109.864 114.598 111.12 114.214 112.116 113.446C113.112 112.678 113.786 111.599 114.139 110.209L117.781 110.987C117.241 113.104 116.141 114.774 114.481 115.998C112.821 117.202 110.777 117.804 108.35 117.804ZM129.753 117.804C127.387 117.804 125.447 117.046 123.933 115.532C122.418 113.996 121.66 112.056 121.66 109.711C121.66 107.366 122.418 105.437 123.933 103.922C125.447 102.386 127.387 101.619 129.753 101.619C132.098 101.619 134.027 102.386 135.542 103.922C137.078 105.437 137.845 107.366 137.845 109.711C137.845 112.056 137.078 113.996 135.542 115.532C134.027 117.046 132.098 117.804 129.753 117.804ZM126.36 113.415C127.232 114.37 128.363 114.847 129.753 114.847C131.143 114.847 132.264 114.37 133.114 113.415C133.986 112.461 134.422 111.226 134.422 109.711C134.422 108.196 133.986 106.962 133.114 106.007C132.264 105.053 131.143 104.576 129.753 104.576C128.363 104.576 127.232 105.053 126.36 106.007C125.51 106.962 125.084 108.196 125.084 109.711C125.084 111.226 125.51 112.461 126.36 113.415ZM142.537 117.555V101.868H145.93V104.482C147.134 102.573 148.856 101.619 151.097 101.619C152.778 101.619 154.137 102.137 155.174 103.175C156.232 104.192 156.762 105.54 156.762 107.221V117.555H153.369V107.999C153.369 107.003 153.078 106.204 152.497 105.603C151.916 104.98 151.138 104.669 150.163 104.669C148.835 104.669 147.798 105.198 147.051 106.256C146.304 107.315 145.93 108.788 145.93 110.676V117.555H142.537ZM170.655 117.43C169.908 117.679 169.078 117.804 168.165 117.804C166.609 117.804 165.354 117.368 164.399 116.496C163.465 115.625 162.998 114.328 162.998 112.606V104.762H160.259V101.868H162.998V97.199H166.391V101.868H170.437V104.762H166.391V112.419C166.391 113.187 166.578 113.778 166.951 114.193C167.346 114.587 167.875 114.785 168.539 114.785C169.286 114.785 169.919 114.66 170.437 114.411L170.655 117.43ZM180.806 101.619C182.839 101.619 184.468 102.169 185.692 103.268C186.916 104.347 187.529 105.852 187.529 107.781V117.555H184.198V115.158C183.742 115.947 183.067 116.59 182.175 117.088C181.283 117.565 180.318 117.804 179.28 117.804C177.724 117.804 176.458 117.368 175.483 116.496C174.508 115.625 174.02 114.515 174.02 113.166C174.02 110.178 176.427 108.435 181.241 107.937L184.198 107.626V107.408C184.198 106.453 183.887 105.696 183.264 105.136C182.663 104.576 181.843 104.295 180.806 104.295C179.851 104.295 179.063 104.565 178.44 105.105C177.818 105.623 177.454 106.35 177.351 107.283L174.3 106.723C174.549 105.188 175.276 103.953 176.479 103.019C177.683 102.086 179.125 101.619 180.806 101.619ZM179.965 115.189C181.272 115.189 182.3 114.785 183.047 113.975C183.794 113.166 184.177 112.108 184.198 110.801V110.147L181.21 110.489C178.637 110.78 177.351 111.641 177.351 113.073C177.351 113.695 177.589 114.204 178.067 114.598C178.544 114.992 179.177 115.189 179.965 115.189ZM200.107 117.804C197.762 117.804 195.864 117.057 194.411 115.563C192.959 114.069 192.233 112.118 192.233 109.711C192.233 107.304 192.959 105.354 194.411 103.86C195.864 102.366 197.762 101.619 200.107 101.619C202.037 101.619 203.645 102.096 204.931 103.05C206.218 104.005 206.996 105.291 207.266 106.91L203.967 107.564C203.801 106.671 203.375 105.955 202.69 105.416C202.026 104.856 201.196 104.576 200.201 104.576C198.852 104.576 197.773 105.042 196.964 105.976C196.154 106.91 195.75 108.155 195.75 109.711C195.75 111.267 196.154 112.512 196.964 113.446C197.773 114.38 198.852 114.847 200.201 114.847C201.196 114.847 202.026 114.587 202.69 114.069C203.354 113.55 203.78 112.834 203.967 111.921L207.297 112.575C206.965 114.214 206.156 115.5 204.869 116.434C203.603 117.347 202.016 117.804 200.107 117.804ZM220.583 117.43C219.836 117.679 219.006 117.804 218.093 117.804C216.536 117.804 215.281 117.368 214.327 116.496C213.393 115.625 212.926 114.328 212.926 112.606V104.762H210.187V101.868H212.926V97.199H216.319V101.868H220.365V104.762H216.319V112.419C216.319 113.187 216.505 113.778 216.879 114.193C217.273 114.587 217.802 114.785 218.466 114.785C219.213 114.785 219.846 114.66 220.365 114.411L220.583 117.43ZM234.189 117.555V95.7672H242.78C244.938 95.7672 246.66 96.3586 247.947 97.5414C249.254 98.7241 249.907 100.301 249.907 102.272C249.907 104.244 249.254 105.821 247.947 107.003C246.66 108.186 244.938 108.777 242.78 108.777H237.862V117.555H234.189ZM237.862 105.603H242.531C243.672 105.603 244.564 105.312 245.208 104.731C245.872 104.129 246.204 103.31 246.204 102.272C246.204 101.235 245.872 100.426 245.208 99.8446C244.564 99.2429 243.672 98.942 242.531 98.942H237.862V105.603ZM268.059 109.12C268.059 109.68 268.038 110.147 267.996 110.52H256.013C256.159 111.869 256.636 112.938 257.445 113.726C258.275 114.515 259.313 114.909 260.558 114.909C261.595 114.909 262.456 114.681 263.141 114.224C263.826 113.747 264.272 113.083 264.479 112.232L267.685 113.042C267.27 114.556 266.43 115.729 265.164 116.559C263.898 117.389 262.342 117.804 260.495 117.804C258.109 117.804 256.21 117.015 254.799 115.438C253.388 113.84 252.683 111.931 252.683 109.711C252.683 107.47 253.357 105.561 254.706 103.984C256.076 102.407 257.953 101.619 260.34 101.619C262.747 101.619 264.635 102.355 266.004 103.829C267.374 105.302 268.059 107.066 268.059 109.12ZM256.169 107.937H264.448C264.344 106.837 263.929 105.955 263.203 105.291C262.498 104.627 261.543 104.295 260.34 104.295C259.261 104.295 258.358 104.617 257.632 105.26C256.906 105.883 256.418 106.775 256.169 107.937ZM282.512 105.167C281.952 104.918 281.277 104.793 280.489 104.793C279.244 104.793 278.206 105.374 277.376 106.536C276.567 107.678 276.162 109.4 276.162 111.703V117.555H272.77V101.868H276.162V104.856C276.577 103.922 277.241 103.154 278.154 102.552C279.067 101.93 280.001 101.619 280.956 101.619C281.64 101.619 282.221 101.712 282.699 101.899L282.512 105.167ZM291.687 117.804C289.923 117.804 288.46 117.358 287.298 116.465C286.157 115.552 285.379 114.463 284.964 113.197L287.765 112.014C288.409 114.069 289.716 115.096 291.687 115.096C292.476 115.096 293.119 114.899 293.617 114.504C294.136 114.11 294.395 113.623 294.395 113.042C294.395 112.419 294.094 111.931 293.492 111.579C292.891 111.226 292.154 110.956 291.282 110.769C290.432 110.562 289.581 110.323 288.73 110.054C287.879 109.763 287.153 109.275 286.551 108.591C285.95 107.906 285.649 107.014 285.649 105.914C285.649 104.669 286.147 103.642 287.143 102.833C288.16 102.023 289.508 101.619 291.189 101.619C292.662 101.619 293.97 101.982 295.111 102.708C296.252 103.414 296.989 104.337 297.321 105.478L294.519 106.661C294.333 105.914 293.918 105.323 293.274 104.887C292.652 104.451 291.967 104.233 291.22 104.233C290.473 104.233 289.882 104.378 289.446 104.669C289.01 104.939 288.792 105.333 288.792 105.852C288.792 106.391 289.093 106.817 289.695 107.128C290.297 107.418 291.023 107.657 291.874 107.844C292.745 108.03 293.617 108.269 294.488 108.56C295.36 108.85 296.096 109.369 296.698 110.116C297.3 110.863 297.601 111.828 297.601 113.01C297.601 114.38 297.051 115.521 295.951 116.434C294.851 117.347 293.43 117.804 291.687 117.804ZM309.366 117.804C307 117.804 305.06 117.046 303.545 115.532C302.03 113.996 301.273 112.056 301.273 109.711C301.273 107.366 302.03 105.437 303.545 103.922C305.06 102.386 307 101.619 309.366 101.619C311.71 101.619 313.64 102.386 315.155 103.922C316.69 105.437 317.458 107.366 317.458 109.711C317.458 112.056 316.69 113.996 315.155 115.532C313.64 117.046 311.71 117.804 309.366 117.804ZM305.973 113.415C306.844 114.37 307.975 114.847 309.366 114.847C310.756 114.847 311.876 114.37 312.727 113.415C313.599 112.461 314.034 111.226 314.034 109.711C314.034 108.196 313.599 106.962 312.727 106.007C311.876 105.053 310.756 104.576 309.366 104.576C307.975 104.576 306.844 105.053 305.973 106.007C305.122 106.962 304.697 108.196 304.697 109.711C304.697 111.226 305.122 112.461 305.973 113.415ZM322.15 117.555V101.868H325.543V104.482C326.746 102.573 328.468 101.619 330.709 101.619C332.39 101.619 333.749 102.137 334.787 103.175C335.845 104.192 336.374 105.54 336.374 107.221V117.555H332.982V107.999C332.982 107.003 332.691 106.204 332.11 105.603C331.529 104.98 330.751 104.669 329.776 104.669C328.448 104.669 327.41 105.198 326.663 106.256C325.916 107.315 325.543 108.788 325.543 110.676V117.555H322.15ZM350.916 117.555V95.7672H355.802L364.268 109.773V95.7672H368.844V117.555H363.957L355.491 103.548V117.555H350.916ZM389.204 109.307C389.204 109.991 389.183 110.562 389.142 111.018H377.874C378.331 113.01 379.555 114.006 381.547 114.006C383.228 114.006 384.245 113.332 384.597 111.983L388.893 113.135C388.436 114.608 387.544 115.76 386.216 116.59C384.888 117.399 383.29 117.804 381.423 117.804C378.891 117.804 376.91 116.994 375.478 115.376C374.067 113.737 373.361 111.848 373.361 109.711C373.361 108.342 373.621 107.066 374.139 105.883C374.658 104.7 375.519 103.694 376.723 102.864C377.947 102.034 379.42 101.619 381.142 101.619C382.491 101.619 383.695 101.857 384.753 102.335C385.832 102.791 386.683 103.403 387.305 104.171C387.928 104.939 388.395 105.758 388.706 106.63C389.038 107.501 389.204 108.394 389.204 109.307ZM377.937 107.781H384.317C384.234 106.951 383.923 106.287 383.383 105.789C382.865 105.271 382.118 105.011 381.142 105.011C379.441 105.011 378.372 105.935 377.937 107.781ZM402.977 117.399C402.167 117.669 401.317 117.804 400.424 117.804C398.64 117.804 397.198 117.326 396.098 116.372C394.998 115.417 394.448 114.027 394.448 112.201V105.665H391.958V101.868H394.448V97.3235H399.024V101.868H402.821V105.665H399.024V111.61C399.024 112.295 399.19 112.834 399.522 113.228C399.875 113.623 400.331 113.82 400.891 113.82C401.597 113.82 402.188 113.695 402.665 113.446L402.977 117.399ZM410.774 117.555L405.888 101.868H410.463L412.797 111.174L415.661 101.868H419.801L422.664 111.174L424.998 101.868H429.574L424.687 117.555H420.703L417.746 108.155L414.758 117.555H410.774ZM440.291 117.804C437.864 117.804 435.872 117.046 434.316 115.532C432.78 113.996 432.012 112.056 432.012 109.711C432.012 107.366 432.78 105.437 434.316 103.922C435.872 102.386 437.864 101.619 440.291 101.619C442.678 101.619 444.649 102.386 446.205 103.922C447.782 105.437 448.571 107.366 448.571 109.711C448.571 112.056 447.782 113.996 446.205 115.532C444.649 117.046 442.678 117.804 440.291 117.804ZM440.291 113.913C441.391 113.913 442.283 113.529 442.968 112.761C443.653 111.973 443.995 110.956 443.995 109.711C443.995 108.466 443.653 107.46 442.968 106.692C442.283 105.904 441.391 105.509 440.291 105.509C439.171 105.509 438.268 105.904 437.584 106.692C436.899 107.46 436.557 108.466 436.557 109.711C436.557 110.956 436.899 111.973 437.584 112.761C438.268 113.529 439.171 113.913 440.291 113.913ZM463.44 106.256C462.9 106.007 462.236 105.883 461.448 105.883C460.307 105.883 459.352 106.37 458.584 107.346C457.817 108.3 457.433 109.815 457.433 111.89V117.555H452.857V101.868H457.433V104.576C457.786 103.746 458.408 103.05 459.3 102.49C460.193 101.909 461.106 101.619 462.039 101.619C462.703 101.619 463.264 101.702 463.72 101.868L463.44 106.256ZM477.975 117.555L473.711 111.081L471.999 112.793V117.555H467.393V95.5183H471.999V107.003L477.228 101.868H482.955L476.761 108.03L483.422 117.555H477.975ZM486.819 95.5183H491.643V99.9069H486.819V95.5183ZM486.912 117.555V101.868H491.488V117.555H486.912ZM496.584 117.555V101.868H501.16V103.953C502.218 102.397 503.816 101.619 505.953 101.619C507.675 101.619 509.065 102.137 510.124 103.175C511.182 104.212 511.711 105.592 511.711 107.315V117.555H507.167V108.528C507.167 107.678 506.918 106.993 506.42 106.474C505.943 105.935 505.289 105.665 504.459 105.665C502.259 105.665 501.16 107.335 501.16 110.676V117.555H496.584ZM527.23 101.868H531.743V116.434C531.743 118.53 531.007 120.221 529.533 121.508C528.06 122.815 526.12 123.468 523.713 123.468C521.866 123.468 520.258 123.012 518.889 122.099C517.54 121.186 516.731 119.993 516.461 118.52L520.632 117.866C520.735 118.488 521.078 118.976 521.659 119.329C522.24 119.702 522.925 119.889 523.713 119.889C524.771 119.889 525.622 119.609 526.265 119.049C526.929 118.509 527.261 117.804 527.261 116.932V115.438C526.411 116.517 525.062 117.057 523.215 117.057C520.995 117.057 519.241 116.362 517.955 114.971C516.668 113.581 516.025 111.703 516.025 109.338C516.025 106.972 516.658 105.094 517.924 103.704C519.21 102.314 520.943 101.619 523.122 101.619C524.948 101.619 526.317 102.148 527.23 103.206V101.868ZM523.962 113.166C525.041 113.166 525.892 112.824 526.514 112.139C527.158 111.433 527.479 110.5 527.479 109.338C527.479 108.176 527.158 107.252 526.514 106.568C525.892 105.862 525.041 105.509 523.962 105.509C522.904 105.509 522.053 105.862 521.41 106.568C520.787 107.252 520.476 108.176 520.476 109.338C520.476 110.5 520.787 111.433 521.41 112.139C522.053 112.824 522.904 113.166 523.962 113.166ZM229.153 153.804C227.223 153.804 225.46 153.409 223.862 152.621C222.285 151.812 220.988 150.546 219.971 148.824C218.955 147.101 218.446 145.047 218.446 142.661C218.446 139.133 219.484 136.394 221.559 134.444C223.634 132.493 226.165 131.518 229.153 131.518C231.664 131.518 233.77 132.161 235.472 133.448C237.173 134.714 238.221 136.436 238.615 138.615L235.005 139.393C234.693 137.94 234.019 136.799 232.982 135.969C231.944 135.118 230.668 134.693 229.153 134.693C227.099 134.693 225.418 135.398 224.111 136.809C222.804 138.2 222.15 140.15 222.15 142.661C222.15 145.172 222.793 147.122 224.08 148.512C225.387 149.903 227.078 150.598 229.153 150.598C230.668 150.598 231.923 150.214 232.919 149.446C233.915 148.678 234.59 147.599 234.942 146.209L238.584 146.987C238.045 149.104 236.945 150.774 235.285 151.998C233.625 153.202 231.581 153.804 229.153 153.804ZM250.556 153.804C248.191 153.804 246.251 153.046 244.736 151.532C243.221 149.996 242.464 148.056 242.464 145.711C242.464 143.366 243.221 141.437 244.736 139.922C246.251 138.386 248.191 137.619 250.556 137.619C252.901 137.619 254.831 138.386 256.346 139.922C257.881 141.437 258.649 143.366 258.649 145.711C258.649 148.056 257.881 149.996 256.346 151.532C254.831 153.046 252.901 153.804 250.556 153.804ZM247.164 149.415C248.035 150.37 249.166 150.847 250.556 150.847C251.947 150.847 253.067 150.37 253.918 149.415C254.789 148.461 255.225 147.226 255.225 145.711C255.225 144.196 254.789 142.962 253.918 142.007C253.067 141.053 251.947 140.576 250.556 140.576C249.166 140.576 248.035 141.053 247.164 142.007C246.313 142.962 245.888 144.196 245.888 145.711C245.888 147.226 246.313 148.461 247.164 149.415ZM263.341 153.555V137.868H266.734V140.513C267.688 138.584 269.224 137.619 271.34 137.619C272.606 137.619 273.664 137.888 274.515 138.428C275.386 138.967 275.988 139.735 276.32 140.731C276.756 139.818 277.43 139.071 278.343 138.49C279.256 137.909 280.304 137.619 281.487 137.619C283.168 137.619 284.506 138.117 285.502 139.113C286.519 140.088 287.027 141.374 287.027 142.972V153.555H283.634V143.813C283.634 142.817 283.354 142.028 282.794 141.447C282.255 140.845 281.497 140.544 280.522 140.544C279.381 140.544 278.478 141.011 277.814 141.945C277.171 142.858 276.849 144.082 276.849 145.618V153.555H273.488V143.813C273.488 142.817 273.218 142.028 272.679 141.447C272.139 140.845 271.382 140.544 270.406 140.544C269.265 140.544 268.363 141.011 267.699 141.945C267.055 142.879 266.734 144.103 266.734 145.618V153.555H263.341ZM292.557 159.219V137.868H295.95V139.86C296.406 139.196 297.07 138.656 297.942 138.241C298.813 137.826 299.778 137.619 300.836 137.619C303.119 137.619 304.914 138.366 306.221 139.86C307.549 141.354 308.213 143.304 308.213 145.711C308.213 148.118 307.528 150.069 306.159 151.563C304.81 153.057 302.974 153.804 300.65 153.804C299.695 153.804 298.792 153.617 297.942 153.243C297.091 152.87 296.427 152.372 295.95 151.749V159.219H292.557ZM296.977 149.446C297.807 150.38 298.907 150.847 300.276 150.847C301.646 150.847 302.745 150.38 303.575 149.446C304.405 148.492 304.82 147.247 304.82 145.711C304.82 144.155 304.405 142.91 303.575 141.976C302.745 141.042 301.646 140.576 300.276 140.576C298.907 140.576 297.807 141.042 296.977 141.976C296.147 142.91 295.732 144.155 295.732 145.711C295.732 147.247 296.147 148.492 296.977 149.446ZM327.433 145.12C327.433 145.68 327.412 146.147 327.371 146.52H315.388C315.533 147.869 316.01 148.938 316.819 149.726C317.649 150.515 318.687 150.909 319.932 150.909C320.969 150.909 321.831 150.681 322.515 150.224C323.2 149.747 323.646 149.083 323.854 148.232L327.06 149.042C326.645 150.556 325.804 151.729 324.538 152.559C323.273 153.389 321.716 153.804 319.87 153.804C317.483 153.804 315.585 153.015 314.174 151.438C312.763 149.84 312.057 147.931 312.057 145.711C312.057 143.47 312.732 141.561 314.08 139.984C315.45 138.407 317.328 137.619 319.714 137.619C322.121 137.619 324.009 138.355 325.379 139.829C326.748 141.302 327.433 143.066 327.433 145.12ZM315.543 143.937H323.823C323.719 142.837 323.304 141.955 322.578 141.291C321.872 140.627 320.918 140.295 319.714 140.295C318.635 140.295 317.732 140.617 317.006 141.26C316.28 141.883 315.792 142.775 315.543 143.937ZM340.803 153.43C340.056 153.679 339.226 153.804 338.313 153.804C336.756 153.804 335.501 153.368 334.547 152.496C333.613 151.625 333.146 150.328 333.146 148.606V140.762H330.407V137.868H333.146V133.199H336.539V137.868H340.585V140.762H336.539V148.419C336.539 149.187 336.725 149.778 337.099 150.193C337.493 150.587 338.022 150.785 338.686 150.785C339.433 150.785 340.066 150.66 340.585 150.411L340.803 153.43ZM346.901 135.253C346.278 135.253 345.76 135.046 345.345 134.631C344.93 134.195 344.722 133.676 344.722 133.074C344.722 132.452 344.93 131.933 345.345 131.518C345.76 131.083 346.278 130.865 346.901 130.865C347.544 130.865 348.073 131.083 348.488 131.518C348.924 131.933 349.142 132.452 349.142 133.074C349.142 133.676 348.924 134.195 348.488 134.631C348.073 135.046 347.544 135.253 346.901 135.253ZM345.22 153.555V137.868H348.613V153.555H345.22ZM363.095 153.43C362.348 153.679 361.518 153.804 360.605 153.804C359.048 153.804 357.793 153.368 356.839 152.496C355.905 151.625 355.438 150.328 355.438 148.606V140.762H352.699V137.868H355.438V133.199H358.831V137.868H362.877V140.762H358.831V148.419C358.831 149.187 359.017 149.778 359.391 150.193C359.785 150.587 360.314 150.785 360.978 150.785C361.725 150.785 362.358 150.66 362.877 150.411L363.095 153.43ZM369.193 135.253C368.57 135.253 368.052 135.046 367.637 134.631C367.222 134.195 367.014 133.676 367.014 133.074C367.014 132.452 367.222 131.933 367.637 131.518C368.052 131.083 368.57 130.865 369.193 130.865C369.836 130.865 370.365 131.083 370.78 131.518C371.216 131.933 371.434 132.452 371.434 133.074C371.434 133.676 371.216 134.195 370.78 134.631C370.365 135.046 369.836 135.253 369.193 135.253ZM367.512 153.555V137.868H370.905V153.555H367.512ZM383.737 153.804C381.372 153.804 379.431 153.046 377.917 151.532C376.402 149.996 375.645 148.056 375.645 145.711C375.645 143.366 376.402 141.437 377.917 139.922C379.431 138.386 381.372 137.619 383.737 137.619C386.082 137.619 388.012 138.386 389.526 139.922C391.062 141.437 391.83 143.366 391.83 145.711C391.83 148.056 391.062 149.996 389.526 151.532C388.012 153.046 386.082 153.804 383.737 153.804ZM380.344 149.415C381.216 150.37 382.347 150.847 383.737 150.847C385.127 150.847 386.248 150.37 387.099 149.415C387.97 148.461 388.406 147.226 388.406 145.711C388.406 144.196 387.97 142.962 387.099 142.007C386.248 141.053 385.127 140.576 383.737 140.576C382.347 140.576 381.216 141.053 380.344 142.007C379.494 142.962 379.068 144.196 379.068 145.711C379.068 147.226 379.494 148.461 380.344 149.415ZM396.522 153.555V137.868H399.914V140.482C401.118 138.573 402.84 137.619 405.081 137.619C406.762 137.619 408.121 138.137 409.158 139.175C410.217 140.192 410.746 141.54 410.746 143.221V153.555H407.353V143.999C407.353 143.003 407.063 142.204 406.482 141.603C405.901 140.98 405.122 140.669 404.147 140.669C402.819 140.669 401.782 141.198 401.035 142.256C400.288 143.315 399.914 144.788 399.914 146.676V153.555H396.522Z" fill="white"/>
<path d="M89.0682 44.3064V23.7184H103.009V27.1596H93.0681V31.9242H101.097V35.3948H93.0681V44.3064H89.0682ZM110.359 29.2478C112.339 29.2478 113.917 29.7772 115.094 30.836C116.29 31.8752 116.888 33.3556 116.888 35.2771V44.3064H113.3V42.1594C112.888 42.8848 112.27 43.4633 111.447 43.8946C110.643 44.326 109.78 44.5417 108.859 44.5417C107.408 44.5417 106.221 44.1299 105.3 43.3064C104.378 42.4633 103.917 41.4045 103.917 40.13C103.917 37.3065 106.123 35.6595 110.535 35.1889L113.3 34.9242V34.7771C113.3 33.934 113.035 33.2771 112.506 32.8066C111.976 32.3164 111.26 32.0713 110.359 32.0713C109.555 32.0713 108.878 32.3066 108.329 32.7771C107.8 33.2477 107.496 33.8752 107.417 34.6595L104.123 34.0712C104.359 32.6203 105.055 31.4536 106.212 30.5713C107.388 29.689 108.77 29.2478 110.359 29.2478ZM109.682 41.8064C110.8 41.8064 111.682 41.4339 112.329 40.6888C112.976 39.9437 113.3 39.0124 113.3 37.8947V37.5712L110.476 37.8947C109.515 38.0124 108.78 38.2575 108.27 38.63C107.761 39.0025 107.506 39.4633 107.506 40.0123C107.506 40.5417 107.702 40.9731 108.094 41.3064C108.486 41.6398 109.015 41.8064 109.682 41.8064ZM130.948 33.0713C130.419 32.836 129.791 32.7183 129.066 32.7183C127.929 32.7183 126.978 33.2281 126.213 34.2477C125.468 35.2477 125.095 36.7869 125.095 38.8653V44.3064H121.39V29.4831H125.095V32.1889C125.468 31.3458 126.076 30.6497 126.919 30.1007C127.782 29.5321 128.664 29.2478 129.566 29.2478C130.174 29.2478 130.713 29.3262 131.184 29.4831L130.948 33.0713ZM143.779 33.0713C143.25 32.836 142.622 32.7183 141.897 32.7183C140.759 32.7183 139.808 33.2281 139.044 34.2477C138.299 35.2477 137.926 36.7869 137.926 38.8653V44.3064H134.22V29.4831H137.926V32.1889C138.299 31.3458 138.907 30.6497 139.75 30.1007C140.612 29.5321 141.495 29.2478 142.397 29.2478C143.005 29.2478 143.544 29.3262 144.014 29.4831L143.779 33.0713ZM152.355 29.2478C154.335 29.2478 155.914 29.7772 157.09 30.836C158.286 31.8752 158.884 33.3556 158.884 35.2771V44.3064H155.296V42.1594C154.884 42.8848 154.266 43.4633 153.443 43.8946C152.639 44.326 151.776 44.5417 150.855 44.5417C149.404 44.5417 148.218 44.1299 147.296 43.3064C146.374 42.4633 145.914 41.4045 145.914 40.13C145.914 37.3065 148.12 35.6595 152.531 35.1889L155.296 34.9242V34.7771C155.296 33.934 155.031 33.2771 154.502 32.8066C153.972 32.3164 153.257 32.0713 152.355 32.0713C151.551 32.0713 150.874 32.3066 150.325 32.7771C149.796 33.2477 149.492 33.8752 149.414 34.6595L146.12 34.0712C146.355 32.6203 147.051 31.4536 148.208 30.5713C149.384 29.689 150.767 29.2478 152.355 29.2478ZM151.678 41.8064C152.796 41.8064 153.678 41.4339 154.325 40.6888C154.972 39.9437 155.296 39.0124 155.296 37.8947V37.5712L152.472 37.8947C151.512 38.0124 150.776 38.2575 150.267 38.63C149.757 39.0025 149.502 39.4633 149.502 40.0123C149.502 40.5417 149.698 40.9731 150.09 41.3064C150.482 41.6398 151.012 41.8064 151.678 41.8064ZM162.503 44.3064V41.4829L170.533 32.6007H163.003V29.4831H175.062V32.3066L167.092 41.1888H175.239V44.3064H162.503Z" fill="black"/>
</svg>
