<svg width="25" height="25" viewBox="0 0 25 25" fill="none" xmlns="http://www.w3.org/2000/svg">
<path fill-rule="evenodd" clip-rule="evenodd" d="M12.815 2.25244C15.245 2.25244 15.599 2.26544 16.623 2.31244C17.687 2.36144 18.414 2.53044 19.05 2.77744C19.7175 3.02832 20.3222 3.4218 20.822 3.93044C21.3306 4.43021 21.7241 5.03494 21.975 5.70244C22.222 6.33844 22.391 7.06544 22.44 8.12944C22.488 9.19644 22.5 9.53644 22.5 12.2524V12.3324C22.5 14.9754 22.488 15.3194 22.44 16.3754C22.391 17.4394 22.222 18.1664 21.975 18.8024C21.7241 19.4699 21.3306 20.0747 20.822 20.5744C20.3222 21.0831 19.7175 21.4766 19.05 21.7274C18.414 21.9744 17.687 22.1434 16.623 22.1924C15.556 22.2404 15.216 22.2524 12.5 22.2524H12.42C9.777 22.2524 9.433 22.2404 8.377 22.1924C7.313 22.1434 6.586 21.9744 5.95 21.7274C5.2825 21.4766 4.67777 21.0831 4.178 20.5744C3.66936 20.0747 3.27587 19.4699 3.025 18.8024C2.778 18.1664 2.609 17.4394 2.56 16.3754C2.513 15.3514 2.5 14.9964 2.5 12.5674V11.9374C2.5 9.50744 2.513 9.15344 2.56 8.12944C2.609 7.06544 2.778 6.33844 3.025 5.70244C3.27587 5.03494 3.66936 4.43021 4.178 3.93044C4.67777 3.4218 5.2825 3.02832 5.95 2.77744C6.586 2.53044 7.313 2.36144 8.377 2.31244C9.401 2.26544 9.756 2.25244 12.185 2.25244H12.815ZM12.734 4.05444H12.266C9.81 4.05444 9.482 4.06544 8.459 4.11244C7.484 4.15744 6.955 4.31944 6.602 4.45644C6.135 4.63844 5.802 4.85444 5.452 5.20444C5.102 5.55444 4.886 5.88744 4.704 6.35444C4.567 6.70744 4.404 7.23644 4.36 8.21144C4.313 9.23444 4.302 9.56244 4.302 12.0184V12.4864C4.302 14.9424 4.313 15.2704 4.36 16.2934C4.405 17.2684 4.567 17.7974 4.704 18.1504C4.886 18.6164 5.103 18.9504 5.452 19.3004C5.802 19.6504 6.135 19.8664 6.602 20.0484C6.955 20.1854 7.484 20.3484 8.459 20.3924C9.513 20.4404 9.829 20.4504 12.5 20.4504H12.58C15.177 20.4504 15.497 20.4404 16.54 20.3924C17.516 20.3474 18.045 20.1854 18.398 20.0484C18.864 19.8664 19.198 19.6504 19.548 19.3004C19.898 18.9504 20.114 18.6174 20.296 18.1504C20.433 17.7974 20.596 17.2684 20.64 16.2934C20.688 15.2384 20.698 14.9234 20.698 12.2524V12.1724C20.698 9.57544 20.688 9.25544 20.64 8.21244C20.595 7.23644 20.433 6.70744 20.296 6.35444C20.1358 5.92001 19.8802 5.52704 19.548 5.20444C19.2254 4.8723 18.8324 4.6167 18.398 4.45644C18.045 4.31944 17.516 4.15644 16.541 4.11244C15.518 4.06544 15.19 4.05444 12.734 4.05444ZM12.5 7.11744C13.1743 7.11744 13.8421 7.25026 14.4651 7.50832C15.0881 7.76638 15.6542 8.14462 16.131 8.62145C16.6078 9.09828 16.9861 9.66436 17.2441 10.2874C17.5022 10.9104 17.635 11.5781 17.635 12.2524C17.635 12.9268 17.5022 13.5945 17.2441 14.2175C16.9861 14.8405 16.6078 15.4066 16.131 15.8834C15.6542 16.3603 15.0881 16.7385 14.4651 16.9966C13.8421 17.2546 13.1743 17.3874 12.5 17.3874C11.1381 17.3874 9.83201 16.8464 8.86901 15.8834C7.90601 14.9204 7.365 13.6143 7.365 12.2524C7.365 10.8906 7.90601 9.58445 8.86901 8.62145C9.83201 7.65845 11.1381 7.11744 12.5 7.11744ZM12.5 8.91944C11.616 8.91944 10.7683 9.2706 10.1432 9.89565C9.51815 10.5207 9.167 11.3685 9.167 12.2524C9.167 13.1364 9.51815 13.9842 10.1432 14.6092C10.7683 15.2343 11.616 15.5854 12.5 15.5854C13.384 15.5854 14.2317 15.2343 14.8568 14.6092C15.4818 13.9842 15.833 13.1364 15.833 12.2524C15.833 11.3685 15.4818 10.5207 14.8568 9.89565C14.2317 9.2706 13.384 8.91944 12.5 8.91944ZM17.838 5.71444C18.1563 5.71444 18.4615 5.84087 18.6865 6.06591C18.9116 6.29096 19.038 6.59618 19.038 6.91444C19.038 7.2327 18.9116 7.53793 18.6865 7.76297C18.4615 7.98801 18.1563 8.11444 17.838 8.11444C17.5197 8.11444 17.2145 7.98801 16.9895 7.76297C16.7644 7.53793 16.638 7.2327 16.638 6.91444C16.638 6.59618 16.7644 6.29096 16.9895 6.06591C17.2145 5.84087 17.5197 5.71444 17.838 5.71444Z" fill="#9CA3AF"/>
</svg>
