<svg width="290" height="381" viewBox="0 0 290 381" fill="none" xmlns="http://www.w3.org/2000/svg">
<path d="M175.382 219.28L61.249 176.054L3.7389 327.901C2.16063 332.069 5.91762 336.291 10.2401 335.208L67.8863 320.766C70.1103 320.209 72.4473 321.085 73.7567 322.967L108.152 372.404C110.687 376.048 116.269 375.358 117.842 371.207L175.382 219.28Z" fill="#AC1517"/>
<path d="M168.423 216.644L68.2084 178.69L15.2574 318.499C14.1428 321.443 16.8272 324.412 19.8676 323.599L73.2249 309.328C74.8186 308.902 76.5072 309.535 77.4279 310.904L108.633 357.3C110.382 359.901 114.339 359.444 115.45 356.512L168.423 216.644Z" fill="#9B1013"/>
<path d="M114.106 219.28L228.239 176.054L285.749 327.901C287.328 332.069 283.571 336.291 279.248 335.208L221.602 320.766C219.378 320.209 217.041 321.085 215.732 322.967L181.336 372.404C178.801 376.048 173.219 375.358 171.647 371.207L114.106 219.28Z" fill="#CB3235"/>
<path d="M121.066 216.644L221.28 178.69L274.231 318.499C275.346 321.443 272.661 324.412 269.621 323.599L216.264 309.328C214.67 308.902 212.981 309.535 212.061 310.904L180.856 357.3C179.106 359.901 175.149 359.444 174.039 356.512L121.066 216.644Z" fill="#BC2628"/>
<circle cx="143.148" cy="130.211" r="129.395" fill="#ACACAC"/>
<path d="M143.148 0.81604C108.83 0.81604 75.9179 14.4487 51.6516 38.7149C27.3853 62.9812 13.7527 95.8933 13.7527 130.211C13.7527 164.529 27.3853 197.441 51.6516 221.707C75.9178 245.973 108.83 259.606 143.148 259.606V246.601C112.279 246.601 82.675 234.338 60.8477 212.511C39.0205 190.684 26.758 161.079 26.758 130.211C26.758 99.3425 39.0205 69.7384 60.8478 47.9111C82.675 26.0838 112.279 13.8214 143.148 13.8214V0.81604Z" fill="#ACACAC"/>
<path d="M143.148 0.81604C108.83 0.81604 75.9179 14.4487 51.6516 38.7149C27.3853 62.9812 13.7527 95.8933 13.7527 130.211C13.7527 164.529 27.3853 197.441 51.6516 221.707C75.9178 245.973 108.83 259.606 143.148 259.606V246.601C112.279 246.601 82.675 234.338 60.8477 212.511C39.0205 190.684 26.758 161.079 26.758 130.211C26.758 99.3425 39.0205 69.7384 60.8478 47.9111C82.675 26.0838 112.279 13.8214 143.148 13.8214V0.81604Z" fill="white" fill-opacity="0.2"/>
<path d="M143.148 0.81604C177.465 0.81604 210.378 14.4487 234.644 38.7149C258.91 62.9812 272.543 95.8933 272.543 130.211C272.543 164.529 258.91 197.441 234.644 221.707C210.378 245.973 177.465 259.606 143.148 259.606V246.601C174.016 246.601 203.62 234.338 225.448 212.511C247.275 190.684 259.537 161.079 259.537 130.211C259.537 99.3425 247.275 69.7384 225.448 47.9111C203.62 26.0838 174.016 13.8214 143.148 13.8214V0.81604Z" fill="#828181"/>
<path d="M140.967 121.96L140.967 121.96L140.958 121.967L109.337 148.23L110.34 149.438L109.337 148.23C107.085 150.101 105.782 152.877 105.782 155.805V167.181C105.782 169.572 107.72 171.51 110.111 171.51H176.672C179.063 171.51 181.001 169.572 181.001 167.181V153.249C181.001 150.858 179.063 148.92 176.672 148.92H143.538L155.931 139.294C155.932 139.293 155.933 139.292 155.934 139.291C164.583 132.66 170.973 126.343 175.013 120.332L175.02 120.322C179.076 114.187 181.144 107.789 181.144 101.15C181.144 91.1064 177.592 82.8506 170.466 76.5257C163.446 70.2099 154.274 67.1164 143.105 67.1164C131.919 67.1164 122.54 71.0464 115.08 78.9035L115.08 78.9039C108.252 86.1007 105.042 94.7491 105.474 104.75C105.569 106.951 107.347 108.596 109.436 108.736L125.378 109.799C128.047 109.976 130.093 107.763 130.121 105.278C130.172 100.777 131.199 97.2122 133.09 94.4753C135.444 91.2041 138.716 89.563 143.105 89.563C146.863 89.563 149.789 90.6868 152.027 92.8423L152.038 92.8529L152.05 92.8634C154.265 94.9142 155.408 97.6233 155.408 101.15C155.408 106.862 150.938 113.793 140.967 121.96Z" fill="#ACACAC"/>
<path d="M140.967 121.96L140.967 121.96L140.958 121.967L109.337 148.23L110.34 149.438L109.337 148.23C107.085 150.101 105.782 152.877 105.782 155.805V167.181C105.782 169.572 107.72 171.51 110.111 171.51H176.672C179.063 171.51 181.001 169.572 181.001 167.181V153.249C181.001 150.858 179.063 148.92 176.672 148.92H143.538L155.931 139.294C155.932 139.293 155.933 139.292 155.934 139.291C164.583 132.66 170.973 126.343 175.013 120.332L175.02 120.322C179.076 114.187 181.144 107.789 181.144 101.15C181.144 91.1064 177.592 82.8506 170.466 76.5257C163.446 70.2099 154.274 67.1164 143.105 67.1164C131.919 67.1164 122.54 71.0464 115.08 78.9035L115.08 78.9039C108.252 86.1007 105.042 94.7491 105.474 104.75C105.569 106.951 107.347 108.596 109.436 108.736L125.378 109.799C128.047 109.976 130.093 107.763 130.121 105.278C130.172 100.777 131.199 97.2122 133.09 94.4753C135.444 91.2041 138.716 89.563 143.105 89.563C146.863 89.563 149.789 90.6868 152.027 92.8423L152.038 92.8529L152.05 92.8634C154.265 94.9142 155.408 97.6233 155.408 101.15C155.408 106.862 150.938 113.793 140.967 121.96Z" fill="white" fill-opacity="0.2"/>
<path d="M140.967 121.96L140.967 121.96L140.958 121.967L109.337 148.23L110.34 149.438L109.337 148.23C107.085 150.101 105.782 152.877 105.782 155.805V167.181C105.782 169.572 107.72 171.51 110.111 171.51H176.672C179.063 171.51 181.001 169.572 181.001 167.181V153.249C181.001 150.858 179.063 148.92 176.672 148.92H143.538L155.931 139.294C155.932 139.293 155.933 139.292 155.934 139.291C164.583 132.66 170.973 126.343 175.013 120.332L175.02 120.322C179.076 114.187 181.144 107.789 181.144 101.15C181.144 91.1064 177.592 82.8506 170.466 76.5257C163.446 70.2099 154.274 67.1164 143.105 67.1164C131.919 67.1164 122.54 71.0464 115.08 78.9035L115.08 78.9039C108.252 86.1007 105.042 94.7491 105.474 104.75C105.569 106.951 107.347 108.596 109.436 108.736L125.378 109.799C128.047 109.976 130.093 107.763 130.121 105.278C130.172 100.777 131.199 97.2122 133.09 94.4753C135.444 91.2041 138.716 89.563 143.105 89.563C146.863 89.563 149.789 90.6868 152.027 92.8423L152.038 92.8529L152.05 92.8634C154.265 94.9142 155.408 97.6233 155.408 101.15C155.408 106.862 150.938 113.793 140.967 121.96Z" stroke="#828181" stroke-width="3.13969"/>
<path d="M153.329 227.34C153.329 227.34 161.388 237.067 181.121 224.725C181.121 224.725 175.856 225.345 172.549 223.598C172.549 223.598 167.997 220.645 164.371 223.44C164.371 223.44 167.777 221.468 168.848 216.686L169.914 211.792C169.914 211.792 170.397 210.099 171.295 209.002C171.295 209.002 160.383 215.441 157.508 219.746C157.505 219.747 153.65 224.539 153.329 227.34Z" fill="#828181"/>
<path d="M173.448 219.779C173.448 219.779 182.009 227.211 199.036 212.38C199.036 212.38 192.64 214.23 187.849 211.978C187.85 211.975 186.818 210.316 173.448 219.779Z" fill="#828181"/>
<path d="M172.021 218.436C172.021 218.436 167.901 207.874 187.594 196.826C187.594 196.826 183.7 202.23 184.211 207.498C184.211 207.498 185.426 209.028 172.021 218.436Z" fill="#828181"/>
<path d="M189.345 209.856C189.345 209.856 198.743 216.198 213.85 199.415C213.85 199.415 207.725 202.025 202.697 200.369C202.695 200.369 201.47 198.848 189.345 209.856Z" fill="#828181"/>
<path d="M187.764 208.699C187.764 208.699 182.398 198.713 200.608 185.362C200.608 185.362 197.397 191.197 198.542 196.364C198.542 196.366 199.933 197.737 187.764 208.699Z" fill="#828181"/>
<path d="M204.315 198.68C204.315 198.68 214.847 202.874 226.037 183.262C226.037 183.262 220.607 187.117 215.341 186.569C215.341 186.567 213.818 185.341 204.315 198.68Z" fill="#828181"/>
<path d="M202.525 197.884C202.525 197.884 195.155 189.27 210.107 172.349C210.107 172.349 208.211 178.734 210.43 183.539C210.428 183.54 212.08 184.584 202.525 197.884Z" fill="#828181"/>
<path d="M215.96 183.526C215.96 183.526 226.94 186.353 235.552 165.479C235.552 165.479 230.654 169.992 225.361 170.116C225.363 170.115 223.699 169.092 215.96 183.526Z" fill="#828181"/>
<path d="M214.085 182.965C214.085 182.965 205.682 175.356 218.37 156.675C218.37 156.675 217.299 163.248 220.108 167.734C220.108 167.734 221.878 168.56 214.085 182.965Z" fill="#828181"/>
<path d="M231.929 151.401C231.929 151.401 243.523 148.729 235.889 126.073C235.889 126.073 224.087 144.044 231.929 151.401Z" fill="#828181"/>
<path d="M225.815 167.306C225.815 167.306 237.007 169.106 243.655 147.525C243.655 147.525 239.194 152.471 233.936 153.083C233.936 153.083 232.185 152.217 225.815 167.306Z" fill="#828181"/>
<path d="M223.893 166.919C223.893 166.919 214.824 160.118 225.731 140.345C225.731 140.345 225.271 146.988 228.485 151.196C228.483 151.197 230.323 151.855 223.893 166.919Z" fill="#828181"/>
<path d="M142.392 231.563C144.341 231.87 151.712 230.745 153.627 230.442C153.809 230.413 153.868 230.186 153.728 230.067L151.567 228.241C151.377 228.08 151.296 227.824 151.36 227.583L151.711 226.254C151.756 226.081 151.592 225.93 151.428 225.999C149.313 226.888 139.496 231.108 142.392 231.563Z" fill="#828181"/>
<path d="M133.084 227.34C133.084 227.34 125.025 237.067 105.292 224.725C105.292 224.725 110.557 225.345 113.864 223.598C113.864 223.598 118.416 220.645 122.042 223.44C122.042 223.44 118.636 221.468 117.565 216.686L116.499 211.792C116.499 211.792 116.016 210.099 115.118 209.002C115.118 209.002 126.03 215.441 128.906 219.746C128.908 219.747 132.763 224.539 133.084 227.34Z" fill="#828181"/>
<path d="M112.965 219.78C112.965 219.78 104.404 227.212 87.3768 212.38C87.3768 212.38 93.7731 214.23 98.5642 211.978C98.5626 211.976 99.5953 210.316 112.965 219.78Z" fill="#828181"/>
<path d="M114.392 218.436C114.392 218.436 118.512 207.874 98.8191 196.826C98.8191 196.826 102.713 202.23 102.202 207.498C102.202 207.498 100.987 209.029 114.392 218.436Z" fill="#828181"/>
<path d="M97.0685 209.856C97.0685 209.856 87.6702 216.198 72.5626 199.415C72.5626 199.415 78.6881 202.025 83.7165 200.369C83.7186 200.369 84.9428 198.848 97.0685 209.856Z" fill="#828181"/>
<path d="M98.6493 208.699C98.6493 208.699 104.016 198.713 85.8052 185.362C85.8052 185.362 89.0161 191.197 87.8714 196.364C87.8709 196.366 86.4806 197.737 98.6493 208.699Z" fill="#828181"/>
<path d="M82.0977 198.68C82.0977 198.68 71.5658 202.874 60.3765 183.262C60.3765 183.262 65.8056 187.117 71.0719 186.569C71.0725 186.567 72.5948 185.341 82.0977 198.68Z" fill="#828181"/>
<path d="M83.8881 197.884C83.8881 197.884 91.2584 189.27 76.3059 172.349C76.3059 172.349 78.2019 178.734 75.9829 183.539C75.985 183.54 74.3334 184.584 83.8881 197.884Z" fill="#828181"/>
<path d="M70.4526 183.526C70.4526 183.526 59.4729 186.353 50.8613 165.479C50.8613 165.479 55.7589 169.992 61.0523 170.116C61.0503 170.115 62.7143 169.092 70.4526 183.526Z" fill="#828181"/>
<path d="M72.328 182.965C72.328 182.965 80.7313 175.356 68.0432 156.675C68.0432 156.675 69.1139 163.248 66.3051 167.734C66.3051 167.734 64.5358 168.56 72.328 182.965Z" fill="#828181"/>
<path d="M54.4842 151.401C54.4842 151.401 42.8896 148.729 50.5236 126.073C50.5236 126.073 62.3257 144.044 54.4842 151.401Z" fill="#828181"/>
<path d="M60.5981 167.306C60.5981 167.306 49.4063 169.106 42.7583 147.525C42.7583 147.525 47.2192 152.471 52.4773 153.083C52.4773 153.083 54.2279 152.217 60.5981 167.306Z" fill="#828181"/>
<path d="M62.5201 166.919C62.5201 166.919 71.5887 160.118 60.6824 140.345C60.6824 140.345 61.1419 146.988 57.9284 151.196C57.9305 151.197 56.0903 151.855 62.5201 166.919Z" fill="#828181"/>
<path d="M144.021 231.563C142.072 231.87 134.702 230.745 132.786 230.442C132.604 230.413 132.545 230.186 132.685 230.067L134.846 228.241C135.036 228.08 135.117 227.824 135.054 227.583L134.703 226.254C134.657 226.081 134.821 225.93 134.985 225.999C137.1 226.888 146.917 231.108 144.021 231.563Z" fill="#828181"/>
</svg>
