<svg width="290" height="381" viewBox="0 0 290 381" fill="none" xmlns="http://www.w3.org/2000/svg">
<path d="M175.382 218.464L61.249 175.238L3.7389 327.085C2.16063 331.253 5.91762 335.475 10.2401 334.392L67.8863 319.95C70.1103 319.393 72.4473 320.269 73.7567 322.151L108.152 371.588C110.687 375.232 116.269 374.542 117.842 370.391L175.382 218.464Z" fill="#AC1517"/>
<path d="M168.423 215.828L68.2084 177.874L15.2574 317.683C14.1428 320.627 16.8272 323.596 19.8676 322.783L73.2249 308.512C74.8186 308.086 76.5072 308.719 77.4279 310.088L108.633 356.484C110.382 359.085 114.339 358.628 115.45 355.696L168.423 215.828Z" fill="#9B1013"/>
<path d="M114.106 218.464L228.239 175.238L285.749 327.085C287.328 331.253 283.571 335.475 279.248 334.392L221.602 319.95C219.378 319.393 217.041 320.269 215.732 322.151L181.336 371.588C178.801 375.232 173.219 374.542 171.647 370.391L114.106 218.464Z" fill="#CB3235"/>
<path d="M121.066 215.828L221.28 177.874L274.231 317.683C275.346 320.627 272.661 323.596 269.621 322.783L216.264 308.512C214.67 308.086 212.981 308.719 212.061 310.088L180.856 356.484C179.106 359.085 175.149 358.628 174.039 355.696L121.066 215.828Z" fill="#BC2628"/>
<circle cx="143.699" cy="129.395" r="129.395" fill="#FACB0D"/>
<path d="M143.699 0C109.382 -4.09234e-07 76.4696 13.6326 52.2034 37.8989C27.9371 62.1652 14.3044 95.0773 14.3044 129.395C14.3044 163.713 27.9371 196.625 52.2033 220.891C76.4696 245.157 109.382 258.79 143.699 258.79V245.785C112.831 245.785 83.2268 233.522 61.3995 211.695C39.5722 189.868 27.3098 160.263 27.3098 129.395C27.3098 98.5265 39.5722 68.9223 61.3995 47.0951C83.2268 25.2678 112.831 13.0053 143.699 13.0053V0Z" fill="#FBD53D"/>
<path d="M143.699 0C109.382 -4.09234e-07 76.4696 13.6326 52.2034 37.8989C27.9371 62.1652 14.3044 95.0773 14.3044 129.395C14.3044 163.713 27.9371 196.625 52.2033 220.891C76.4696 245.157 109.382 258.79 143.699 258.79V245.785C112.831 245.785 83.2268 233.522 61.3995 211.695C39.5722 189.868 27.3098 160.263 27.3098 129.395C27.3098 98.5265 39.5722 68.9223 61.3995 47.0951C83.2268 25.2678 112.831 13.0053 143.699 13.0053V0Z" fill="white" fill-opacity="0.2"/>
<path d="M143.7 0C178.017 -4.09234e-07 210.929 13.6326 235.196 37.8989C259.462 62.1652 273.094 95.0773 273.094 129.395C273.094 163.713 259.462 196.625 235.196 220.891C210.929 245.157 178.017 258.79 143.7 258.79V245.785C174.568 245.785 204.172 233.522 225.999 211.695C247.827 189.868 260.089 160.263 260.089 129.395C260.089 98.5265 247.827 68.9223 225.999 47.0951C204.172 25.2678 174.568 13.0053 143.7 13.0053V0Z" fill="#E1980C"/>
<path d="M132.153 166.371C132.153 168.763 134.092 170.701 136.483 170.701H152.085C154.476 170.701 156.414 168.763 156.414 166.371V70.6293C156.414 68.2381 154.476 66.2997 152.085 66.2997H140.657C138.322 66.2997 136.102 67.1407 134.312 68.5505C127.174 74.1724 119.915 78.0172 112.534 80.1274C110.672 80.6599 109.297 82.35 109.297 84.3621V99.2148C109.297 101.918 111.807 104.071 114.558 103.333C120.716 101.681 126.582 98.9684 132.153 95.2102V166.371Z" fill="#FACB0D"/>
<path d="M132.153 166.371C132.153 168.763 134.092 170.701 136.483 170.701H152.085C154.476 170.701 156.414 168.763 156.414 166.371V70.6293C156.414 68.2381 154.476 66.2997 152.085 66.2997H140.657C138.322 66.2997 136.102 67.1407 134.312 68.5505C127.174 74.1724 119.915 78.0172 112.534 80.1274C110.672 80.6599 109.297 82.35 109.297 84.3621V99.2148C109.297 101.918 111.807 104.071 114.558 103.333C120.716 101.681 126.582 98.9684 132.153 95.2102V166.371Z" fill="white" fill-opacity="0.2"/>
<path d="M132.153 166.371C132.153 168.763 134.092 170.701 136.483 170.701H152.085C154.476 170.701 156.414 168.763 156.414 166.371V70.6293C156.414 68.2381 154.476 66.2997 152.085 66.2997H140.657C138.322 66.2997 136.102 67.1407 134.312 68.5505C127.174 74.1724 119.915 78.0172 112.534 80.1274C110.672 80.6599 109.297 82.35 109.297 84.3621V99.2148C109.297 101.918 111.807 104.071 114.558 103.333C120.716 101.681 126.582 98.9684 132.153 95.2102V166.371Z" stroke="#E1980C" stroke-width="3.14112"/>
<path d="M153.88 226.524C153.88 226.524 161.94 236.251 181.673 223.909C181.673 223.909 176.408 224.529 173.1 222.782C173.1 222.782 168.549 219.829 164.923 222.624C164.923 222.624 168.329 220.652 169.4 215.87L170.466 210.976C170.466 210.976 170.949 209.283 171.847 208.186C171.847 208.186 160.935 214.625 158.059 218.93C158.057 218.931 154.201 223.723 153.88 226.524Z" fill="#E1980C"/>
<path d="M174 218.963C174 218.963 182.561 226.395 199.588 211.564C199.588 211.564 193.192 213.414 188.401 211.162C188.402 211.159 187.37 209.5 174 218.963Z" fill="#E1980C"/>
<path d="M172.573 217.62C172.573 217.62 168.453 207.058 188.146 196.01C188.146 196.01 184.252 201.413 184.763 206.682C184.763 206.682 185.978 208.212 172.573 217.62Z" fill="#E1980C"/>
<path d="M189.896 209.04C189.896 209.04 199.295 215.382 214.402 198.599C214.402 198.599 208.277 201.209 203.248 199.553C203.246 199.553 202.022 198.032 189.896 209.04Z" fill="#E1980C"/>
<path d="M188.316 207.883C188.316 207.883 182.95 197.897 201.16 184.547C201.16 184.547 197.949 190.381 199.094 195.548C199.094 195.55 200.484 196.921 188.316 207.883Z" fill="#E1980C"/>
<path d="M204.867 197.864C204.867 197.864 215.399 202.058 226.588 182.446C226.588 182.446 221.159 186.3 215.893 185.753C215.892 185.751 214.37 184.525 204.867 197.864Z" fill="#E1980C"/>
<path d="M203.077 197.068C203.077 197.068 195.706 188.454 210.659 171.533C210.659 171.533 208.763 177.918 210.982 182.723C210.98 182.723 212.631 183.768 203.077 197.068Z" fill="#E1980C"/>
<path d="M216.512 182.71C216.512 182.71 227.492 185.537 236.104 164.663C236.104 164.663 231.206 169.176 225.912 169.3C225.915 169.299 224.251 168.276 216.512 182.71Z" fill="#E1980C"/>
<path d="M214.637 182.149C214.637 182.149 206.234 174.54 218.922 155.859C218.922 155.859 217.851 162.432 220.66 166.918C220.66 166.918 222.429 167.744 214.637 182.149Z" fill="#E1980C"/>
<path d="M232.481 150.585C232.481 150.585 244.075 147.913 236.441 125.257C236.441 125.257 224.639 143.228 232.481 150.585Z" fill="#E1980C"/>
<path d="M226.367 166.49C226.367 166.49 237.559 168.29 244.207 146.709C244.207 146.709 239.746 151.655 234.488 152.267C234.488 152.267 232.737 151.401 226.367 166.49Z" fill="#E1980C"/>
<path d="M224.445 166.103C224.445 166.103 215.376 159.302 226.282 139.529C226.282 139.529 225.823 146.172 229.036 150.38C229.034 150.381 230.875 151.039 224.445 166.103Z" fill="#E1980C"/>
<path d="M142.944 230.747C144.893 231.054 152.263 229.929 154.179 229.626C154.361 229.597 154.42 229.37 154.28 229.251L152.119 227.425C151.929 227.264 151.848 227.008 151.911 226.767L152.262 225.437C152.308 225.265 152.144 225.114 151.98 225.183C149.865 226.072 140.048 230.292 142.944 230.747Z" fill="#E1980C"/>
<path d="M133.636 226.524C133.636 226.524 125.577 236.251 105.844 223.909C105.844 223.909 111.109 224.529 114.416 222.782C114.416 222.782 118.968 219.829 122.594 222.624C122.594 222.624 119.188 220.652 118.117 215.87L117.051 210.976C117.051 210.976 116.568 209.283 115.67 208.186C115.67 208.186 126.582 214.625 129.458 218.93C129.46 218.931 133.315 223.723 133.636 226.524Z" fill="#E1980C"/>
<path d="M113.516 218.964C113.516 218.964 104.956 226.396 87.9286 211.564C87.9286 211.564 94.3249 213.414 99.116 211.162C99.1144 211.16 100.147 209.5 113.516 218.964Z" fill="#E1980C"/>
<path d="M114.944 217.62C114.944 217.62 119.064 207.058 99.3708 196.01C99.3708 196.01 103.264 201.414 102.754 206.682C102.754 206.682 101.538 208.212 114.944 217.62Z" fill="#E1980C"/>
<path d="M97.6203 209.04C97.6203 209.04 88.222 215.382 73.1144 198.599C73.1144 198.599 79.2398 201.209 84.2682 199.553C84.2703 199.553 85.4946 198.032 97.6203 209.04Z" fill="#E1980C"/>
<path d="M99.2011 207.883C99.2011 207.883 104.567 197.897 86.3569 184.547C86.3569 184.547 89.5678 190.381 88.4232 195.548C88.4226 195.55 87.0324 196.921 99.2011 207.883Z" fill="#E1980C"/>
<path d="M82.6495 197.864C82.6495 197.864 72.1176 202.058 60.9282 182.446C60.9282 182.446 66.3574 186.3 71.6237 185.753C71.6242 185.751 73.1465 184.525 82.6495 197.864Z" fill="#E1980C"/>
<path d="M84.4399 197.068C84.4399 197.068 91.8101 188.454 76.8577 171.533C76.8577 171.533 78.7536 177.918 76.5347 182.723C76.5368 182.723 74.8851 183.768 84.4399 197.068Z" fill="#E1980C"/>
<path d="M71.0044 182.71C71.0044 182.71 60.0247 185.537 51.4131 164.663C51.4131 164.663 56.3106 169.176 61.6041 169.3C61.602 169.299 63.2661 168.276 71.0044 182.71Z" fill="#E1980C"/>
<path d="M72.8797 182.149C72.8797 182.149 81.2831 174.54 68.595 155.859C68.595 155.859 69.6656 162.432 66.8568 166.918C66.8568 166.918 65.0875 167.744 72.8797 182.149Z" fill="#E1980C"/>
<path d="M55.0362 150.585C55.0362 150.585 43.4416 147.913 51.0756 125.257C51.0756 125.257 62.8777 143.228 55.0362 150.585Z" fill="#E1980C"/>
<path d="M61.1501 166.49C61.1501 166.49 49.9583 168.29 43.3103 146.709C43.3103 146.709 47.7712 151.655 53.0293 152.267C53.0293 152.267 54.7799 151.401 61.1501 166.49Z" fill="#E1980C"/>
<path d="M63.0721 166.103C63.0721 166.103 72.1407 159.302 61.2344 139.529C61.2344 139.529 61.6939 146.172 58.4804 150.38C58.4825 150.381 56.6423 151.039 63.0721 166.103Z" fill="#E1980C"/>
<path d="M144.573 230.747C142.624 231.054 135.253 229.929 133.338 229.626C133.156 229.597 133.097 229.37 133.237 229.251L135.398 227.425C135.588 227.264 135.669 227.008 135.605 226.767L135.254 225.437C135.209 225.265 135.373 225.114 135.537 225.183C137.652 226.072 147.469 230.292 144.573 230.747Z" fill="#E1980C"/>
</svg>
