<svg width="291" height="381" viewBox="0 0 291 381" fill="none" xmlns="http://www.w3.org/2000/svg">
<path d="M176.359 219.28L62.226 176.054L4.71595 327.901C3.13768 332.069 6.89467 336.291 11.2171 335.208L68.8633 320.766C71.0874 320.209 73.4243 321.085 74.7338 322.967L109.129 372.404C111.664 376.048 117.246 375.358 118.819 371.207L176.359 219.28Z" fill="#AC1517"/>
<path d="M169.4 216.644L69.1855 178.69L16.2345 318.499C15.1198 321.443 17.8043 324.412 20.8446 323.599L74.2019 309.328C75.7957 308.902 77.4842 309.535 78.405 310.904L109.61 357.3C111.359 359.901 115.316 359.444 116.427 356.512L169.4 216.644Z" fill="#9B1013"/>
<path d="M115.083 219.28L229.216 176.054L286.726 327.901C288.305 332.069 284.548 336.291 280.225 335.208L222.579 320.766C220.355 320.209 218.018 321.085 216.709 322.967L182.313 372.404C179.778 376.048 174.196 375.358 172.624 371.207L115.083 219.28Z" fill="#CB3235"/>
<path d="M122.043 216.644L222.257 178.69L275.208 318.499C276.323 321.443 273.638 324.412 270.598 323.599L217.241 309.328C215.647 308.902 213.958 309.535 213.038 310.904L181.833 357.3C180.083 359.901 176.126 359.444 175.016 356.512L122.043 216.644Z" fill="#BC2628"/>
<circle cx="144.125" cy="130.211" r="129.395" fill="#B05F00"/>
<path d="M144.125 0.81604C109.807 0.81604 76.8949 14.4487 52.6286 38.7149C28.3624 62.9812 14.7297 95.8933 14.7297 130.211C14.7297 164.529 28.3624 197.441 52.6286 221.707C76.8949 245.973 109.807 259.606 144.125 259.606V246.601C113.256 246.601 83.6521 234.338 61.8248 212.511C39.9975 190.684 27.7351 161.079 27.7351 130.211C27.7351 99.3425 39.9975 69.7384 61.8248 47.9111C83.6521 26.0838 113.256 13.8214 144.125 13.8214V0.81604Z" fill="#B05F00"/>
<path d="M144.125 0.81604C109.807 0.81604 76.8949 14.4487 52.6286 38.7149C28.3624 62.9812 14.7297 95.8933 14.7297 130.211C14.7297 164.529 28.3624 197.441 52.6286 221.707C76.8949 245.973 109.807 259.606 144.125 259.606V246.601C113.256 246.601 83.6521 234.338 61.8248 212.511C39.9975 190.684 27.7351 161.079 27.7351 130.211C27.7351 99.3425 39.9975 69.7384 61.8248 47.9111C83.6521 26.0838 113.256 13.8214 144.125 13.8214V0.81604Z" fill="white" fill-opacity="0.2"/>
<path d="M144.125 0.81604C178.442 0.81604 211.355 14.4487 235.621 38.7149C259.887 62.9812 273.52 95.8933 273.52 130.211C273.52 164.529 259.887 197.441 235.621 221.707C211.355 245.973 178.443 259.606 144.125 259.606V246.601C174.993 246.601 204.597 234.338 226.425 212.511C248.252 190.684 260.514 161.079 260.514 130.211C260.514 99.3425 248.252 69.7384 226.425 47.9111C204.597 26.0838 174.993 13.8214 144.125 13.8214V0.81604Z" fill="#834A07"/>
<path d="M115.618 169.647L115.626 169.653C123.002 175.335 132.128 178.131 142.898 178.131C154.812 178.131 164.593 175.001 172.091 168.603C179.616 162.181 183.368 153.676 183.368 143.239C183.368 133.734 180.383 126.045 174.293 120.358C169.213 115.539 162.775 112.885 155.085 112.316L175.247 95.3558C176.225 94.5333 176.789 93.3208 176.789 92.0431V78.0668C176.789 75.6761 174.851 73.738 172.46 73.738H110.333C107.942 73.738 106.004 75.6761 106.004 78.0668V91.8557C106.004 94.2465 107.942 96.1845 110.333 96.1845H144.402L124.004 113.817C122.433 115.175 122.047 117.457 123.085 119.255L129.055 129.604C130.33 131.813 133.072 132.309 135.12 131.326C137.641 130.117 140.37 129.507 143.327 129.507C147.788 129.507 151.188 130.747 153.697 133.089L153.707 133.098L153.716 133.106C156.307 135.446 157.632 138.532 157.632 142.524C157.632 146.499 156.272 149.581 153.592 151.926L153.582 151.934L153.573 151.942C150.961 154.302 147.5 155.542 143.041 155.542C138.662 155.542 135.054 154.386 132.125 152.146C129.837 150.397 128.248 148.193 127.33 145.507C126.641 143.495 124.606 141.884 122.22 142.285L107.015 144.837C104.789 145.21 103.11 147.294 103.533 149.662C104.991 157.824 109.034 164.507 115.618 169.647Z" fill="#B05F00"/>
<path d="M115.618 169.647L115.626 169.653C123.002 175.335 132.128 178.131 142.898 178.131C154.812 178.131 164.593 175.001 172.091 168.603C179.616 162.181 183.368 153.676 183.368 143.239C183.368 133.734 180.383 126.045 174.293 120.358C169.213 115.539 162.775 112.885 155.085 112.316L175.247 95.3558C176.225 94.5333 176.789 93.3208 176.789 92.0431V78.0668C176.789 75.6761 174.851 73.738 172.46 73.738H110.333C107.942 73.738 106.004 75.6761 106.004 78.0668V91.8557C106.004 94.2465 107.942 96.1845 110.333 96.1845H144.402L124.004 113.817C122.433 115.175 122.047 117.457 123.085 119.255L129.055 129.604C130.33 131.813 133.072 132.309 135.12 131.326C137.641 130.117 140.37 129.507 143.327 129.507C147.788 129.507 151.188 130.747 153.697 133.089L153.707 133.098L153.716 133.106C156.307 135.446 157.632 138.532 157.632 142.524C157.632 146.499 156.272 149.581 153.592 151.926L153.582 151.934L153.573 151.942C150.961 154.302 147.5 155.542 143.041 155.542C138.662 155.542 135.054 154.386 132.125 152.146C129.837 150.397 128.248 148.193 127.33 145.507C126.641 143.495 124.606 141.884 122.22 142.285L107.015 144.837C104.789 145.21 103.11 147.294 103.533 149.662C104.991 157.824 109.034 164.507 115.618 169.647Z" fill="white" fill-opacity="0.2"/>
<path d="M115.618 169.647L115.626 169.653C123.002 175.335 132.128 178.131 142.898 178.131C154.812 178.131 164.593 175.001 172.091 168.603C179.616 162.181 183.368 153.676 183.368 143.239C183.368 133.734 180.383 126.045 174.293 120.358C169.213 115.539 162.775 112.885 155.085 112.316L175.247 95.3558C176.225 94.5333 176.789 93.3208 176.789 92.0431V78.0668C176.789 75.6761 174.851 73.738 172.46 73.738H110.333C107.942 73.738 106.004 75.6761 106.004 78.0668V91.8557C106.004 94.2465 107.942 96.1845 110.333 96.1845H144.402L124.004 113.817C122.433 115.175 122.047 117.457 123.085 119.255L129.055 129.604C130.33 131.813 133.072 132.309 135.12 131.326C137.641 130.117 140.37 129.507 143.327 129.507C147.788 129.507 151.188 130.747 153.697 133.089L153.707 133.098L153.716 133.106C156.307 135.446 157.632 138.532 157.632 142.524C157.632 146.499 156.272 149.581 153.592 151.926L153.582 151.934L153.573 151.942C150.961 154.302 147.5 155.542 143.041 155.542C138.662 155.542 135.054 154.386 132.125 152.146C129.837 150.397 128.248 148.193 127.33 145.507C126.641 143.495 124.606 141.884 122.22 142.285L107.015 144.837C104.789 145.21 103.11 147.294 103.533 149.662C104.991 157.824 109.034 164.507 115.618 169.647Z" stroke="#834A07" stroke-width="3.13969"/>
<path d="M154.306 227.34C154.306 227.34 162.365 237.067 182.098 224.725C182.098 224.725 176.833 225.345 173.526 223.598C173.526 223.598 168.974 220.645 165.348 223.44C165.348 223.44 168.754 221.468 169.825 216.686L170.891 211.792C170.891 211.792 171.374 210.099 172.272 209.002C172.272 209.002 161.36 215.441 158.485 219.746C158.483 219.747 154.627 224.539 154.306 227.34Z" fill="#834A07"/>
<path d="M174.426 219.779C174.426 219.779 182.986 227.211 200.013 212.38C200.013 212.38 193.617 214.23 188.826 211.978C188.827 211.975 187.795 210.316 174.426 219.779Z" fill="#834A07"/>
<path d="M172.998 218.436C172.998 218.436 168.878 207.874 188.571 196.826C188.571 196.826 184.678 202.23 185.188 207.498C185.188 207.498 186.404 209.028 172.998 218.436Z" fill="#834A07"/>
<path d="M190.322 209.856C190.322 209.856 199.72 216.198 214.827 199.415C214.827 199.415 208.702 202.025 203.674 200.369C203.672 200.369 202.447 198.848 190.322 209.856Z" fill="#834A07"/>
<path d="M188.741 208.699C188.741 208.699 183.375 198.713 201.585 185.362C201.585 185.362 198.374 191.197 199.519 196.364C199.519 196.366 200.91 197.737 188.741 208.699Z" fill="#834A07"/>
<path d="M205.292 198.68C205.292 198.68 215.824 202.874 227.014 183.262C227.014 183.262 221.585 187.117 216.318 186.569C216.318 186.567 214.795 185.341 205.292 198.68Z" fill="#834A07"/>
<path d="M203.502 197.884C203.502 197.884 196.132 189.27 211.084 172.349C211.084 172.349 209.188 178.734 211.407 183.539C211.405 183.54 213.057 184.584 203.502 197.884Z" fill="#834A07"/>
<path d="M216.938 183.526C216.938 183.526 227.917 186.353 236.529 165.479C236.529 165.479 231.631 169.992 226.338 170.116C226.34 170.115 224.676 169.092 216.938 183.526Z" fill="#834A07"/>
<path d="M215.062 182.965C215.062 182.965 206.659 175.356 219.347 156.675C219.347 156.675 218.276 163.248 221.085 167.734C221.085 167.734 222.855 168.56 215.062 182.965Z" fill="#834A07"/>
<path d="M232.906 151.401C232.906 151.401 244.5 148.729 236.867 126.073C236.867 126.073 225.064 144.044 232.906 151.401Z" fill="#834A07"/>
<path d="M226.792 167.306C226.792 167.306 237.984 169.106 244.632 147.525C244.632 147.525 240.171 152.471 234.913 153.083C234.913 153.083 233.162 152.217 226.792 167.306Z" fill="#834A07"/>
<path d="M224.87 166.919C224.87 166.919 215.801 160.118 226.708 140.345C226.708 140.345 226.248 146.988 229.462 151.196C229.46 151.197 231.3 151.855 224.87 166.919Z" fill="#834A07"/>
<path d="M143.369 231.563C145.318 231.87 152.689 230.745 154.604 230.442C154.786 230.413 154.845 230.186 154.705 230.067L152.544 228.241C152.354 228.08 152.273 227.824 152.337 227.583L152.688 226.254C152.733 226.081 152.569 225.93 152.405 225.999C150.29 226.888 140.473 231.108 143.369 231.563Z" fill="#834A07"/>
<path d="M134.061 227.34C134.061 227.34 126.002 237.067 106.269 224.725C106.269 224.725 111.534 225.345 114.841 223.598C114.841 223.598 119.393 220.645 123.019 223.44C123.019 223.44 119.613 221.468 118.542 216.686L117.476 211.792C117.476 211.792 116.993 210.099 116.095 209.002C116.095 209.002 127.007 215.441 129.883 219.746C129.885 219.747 133.74 224.539 134.061 227.34Z" fill="#834A07"/>
<path d="M113.942 219.78C113.942 219.78 105.381 227.212 88.3539 212.38C88.3539 212.38 94.7502 214.23 99.5412 211.978C99.5397 211.976 100.572 210.316 113.942 219.78Z" fill="#834A07"/>
<path d="M115.369 218.436C115.369 218.436 119.489 207.874 99.7961 196.826C99.7961 196.826 103.69 202.23 103.179 207.498C103.179 207.498 101.964 209.029 115.369 218.436Z" fill="#834A07"/>
<path d="M98.0456 209.856C98.0456 209.856 88.6473 216.198 73.5397 199.415C73.5397 199.415 79.6651 202.025 84.6935 200.369C84.6956 200.369 85.9199 198.848 98.0456 209.856Z" fill="#834A07"/>
<path d="M99.6264 208.699C99.6264 208.699 104.993 198.713 86.7822 185.362C86.7822 185.362 89.9931 191.197 88.8485 196.364C88.8479 196.366 87.4577 197.737 99.6264 208.699Z" fill="#834A07"/>
<path d="M83.0748 198.68C83.0748 198.68 72.5429 202.874 61.3535 183.262C61.3535 183.262 66.7827 187.117 72.049 186.569C72.0495 186.567 73.5718 185.341 83.0748 198.68Z" fill="#834A07"/>
<path d="M84.8652 197.884C84.8652 197.884 92.2354 189.27 77.283 172.349C77.283 172.349 79.1789 178.734 76.96 183.539C76.9621 183.54 75.3104 184.584 84.8652 197.884Z" fill="#834A07"/>
<path d="M71.4297 183.526C71.4297 183.526 60.45 186.353 51.8384 165.479C51.8384 165.479 56.7359 169.992 62.0294 170.116C62.0273 170.115 63.6914 169.092 71.4297 183.526Z" fill="#834A07"/>
<path d="M73.305 182.965C73.305 182.965 81.7083 175.356 69.0203 156.675C69.0203 156.675 70.0909 163.248 67.2821 167.734C67.2821 167.734 65.5128 168.56 73.305 182.965Z" fill="#834A07"/>
<path d="M55.4613 151.401C55.4613 151.401 43.8667 148.729 51.5006 126.073C51.5006 126.073 63.3028 144.044 55.4613 151.401Z" fill="#834A07"/>
<path d="M61.5752 167.306C61.5752 167.306 50.3833 169.106 43.7354 147.525C43.7354 147.525 48.1962 152.471 53.4543 153.083C53.4543 153.083 55.205 152.217 61.5752 167.306Z" fill="#834A07"/>
<path d="M63.4972 166.919C63.4972 166.919 72.5657 160.118 61.6595 140.345C61.6595 140.345 62.1189 146.988 58.9055 151.196C58.9076 151.197 57.0674 151.855 63.4972 166.919Z" fill="#834A07"/>
<path d="M144.998 231.563C143.049 231.87 135.679 230.745 133.763 230.442C133.581 230.413 133.522 230.186 133.662 230.067L135.823 228.241C136.014 228.08 136.094 227.824 136.031 227.583L135.68 226.254C135.634 226.081 135.798 225.93 135.962 225.999C138.077 226.888 147.894 231.108 144.998 231.563Z" fill="#834A07"/>
</svg>
