<svg width="159" height="78" viewBox="0 0 159 78" fill="none" xmlns="http://www.w3.org/2000/svg">
<path d="M28.5688 37.3599H30.7665C38.3522 37.3599 44.5016 43.5093 44.5016 51.095V76.0928H42.304C34.7183 76.0928 28.5688 69.9434 28.5688 62.3577V37.3599Z" fill="white"/>
<path d="M21.4447 19.2281H0.848963C0.384229 19.2281 0.00955426 19.6137 0.0452967 20.0771C0.846358 30.4619 10.5059 37.4608 17.4138 37.7705C26.6044 38.1826 38.3748 38.4573 44.5019 51.6429V34.1994C44.5019 25.821 33.8601 19.2281 21.4447 19.2281Z" fill="white"/>
<path d="M67.0286 29.9435H64.2815C56.6958 29.9435 50.5464 36.0929 50.5464 43.6786V76.0933H53.2935C60.8791 76.0933 67.0286 69.9439 67.0286 62.3582V29.9435Z" fill="white"/>
<path d="M51.9219 65.3807V62.0844C51.9219 54.4987 58.0713 48.3492 65.657 48.3492H79.1175V51.6456C79.1175 59.2313 72.968 65.3807 65.3824 65.3807H51.9219Z" fill="white"/>
<path d="M73.6031 20.6017H94.1989C94.6636 20.6017 95.0383 20.9873 95.0026 21.4506C94.2015 31.8354 84.542 38.8343 77.6341 39.144C68.4435 39.5561 56.673 39.8308 50.546 53.0165V35.5729C50.546 27.1945 61.1877 20.6017 73.6031 20.6017Z" fill="white"/>
<path d="M62.9072 0H59.3361C51.7504 0 45.6009 6.14942 45.6009 13.7351V19.2291H49.1721C56.7578 19.2291 62.9072 13.0797 62.9072 5.49399V0Z" fill="white"/>
<path d="M62.9072 0L54.3914 9.88926L45.6009 19.2291H49.1721C56.7578 19.2291 62.9072 13.0797 62.9072 5.49399V0Z" fill="white"/>
<path d="M90.0764 58.8635V46.4283H93.2385V58.8635H90.0764ZM95.4717 58.8635V46.4283H100.908C102.814 46.4283 104.33 46.9553 105.455 48.0094C106.592 49.0634 107.173 50.6089 107.196 52.6459C107.173 54.7421 106.586 56.2995 105.438 57.318C104.301 58.3483 102.779 58.8635 100.872 58.8635H95.4717ZM98.6338 56.11H100.659C101.76 56.1218 102.595 55.8553 103.164 55.3106C103.744 54.7539 104.034 53.8657 104.034 52.6459C104.034 51.4498 103.75 50.5734 103.181 50.0168C102.601 49.4601 101.76 49.1818 100.659 49.1818H98.6338V56.11ZM108.726 58.8635V46.4283H112.03L117.501 54.3335H117.537V46.4283H120.699V58.8635H117.395L111.923 50.9405H111.888V58.8635H108.726ZM90.0764 76.8635V64.4283H93.2385V76.8635H90.0764ZM99.0068 76.8635V67.1818H94.6723V64.4283H106.539V67.1818H102.169V76.8635H99.0068ZM112.508 76.8635V64.4283H122.207V67.1818H115.67V69.9708H121.958V72.6H115.67V76.8635H112.508ZM123.888 76.8635V64.4283H133.481V67.1818H127.05V69.2958H132.877V71.8361H127.05V74.11H133.499V76.8635H123.888ZM140.704 77.201C138.904 77.1891 137.459 76.7983 136.37 76.0285C135.28 75.2469 134.617 74.1337 134.38 72.6888L137.382 72.1559C137.572 73.0204 137.933 73.6481 138.466 74.0389C139.011 74.4297 139.763 74.6251 140.722 74.6251C141.468 74.6251 142.042 74.5186 142.445 74.3054C142.86 74.0922 143.067 73.7961 143.067 73.4172C143.102 73.0737 142.871 72.7717 142.374 72.5112C141.877 72.2388 140.888 71.9427 139.407 71.6229C137.844 71.2795 136.689 70.8058 135.943 70.2018C135.185 69.6096 134.806 68.8339 134.806 67.8746C134.83 66.7496 135.304 65.8436 136.228 65.1567C137.163 64.4816 138.424 64.1323 140.011 64.1086C141.515 64.1204 142.783 64.4639 143.813 65.1389C144.843 65.8021 145.512 66.7199 145.82 67.8924L142.836 68.5497C142.623 67.922 142.279 67.4542 141.806 67.1463C141.332 66.8265 140.734 66.6667 140.011 66.6667C139.384 66.6667 138.886 66.7732 138.519 66.9864C138.164 67.1877 137.98 67.4661 137.968 67.8213C137.933 68.0937 138.152 68.3365 138.626 68.5497C139.099 68.751 140.035 69.0116 141.433 69.3313C143.02 69.6866 144.216 70.1781 145.021 70.8058C145.826 71.4453 146.229 72.2921 146.229 73.3461C146.205 74.5304 145.702 75.466 144.719 76.1529C143.736 76.8398 142.398 77.1891 140.704 77.201ZM151.121 76.8635V67.1818H146.786V64.4283H158.653V67.1818H154.283V76.8635H151.121Z" fill="white"/>
</svg>
