<svg width="511" height="172" viewBox="0 0 511 172" fill="none" xmlns="http://www.w3.org/2000/svg">
<rect x="38.7515" y="44.75" width="469.5" height="124.5" fill="#13AF6B" stroke="white" stroke-width="4.5"/>
<path d="M207.161 2H15.842V9.08197H8.82353V14.9836H2V48.4262H8.82353V54.7213H15.842V62H207.161V54.7213H214.764V48.4262H221.003V14.9836H214.764V9.08197H207.161V2Z" fill="#FACB0D" stroke="white" stroke-width="2.14286"/>
<path d="M130.837 106.75V110.322H123.351V117.808H119.779V110.284H112.255V106.712H119.741V99.226H123.313V106.75H130.837ZM146.026 103.102C148.762 103.102 151.004 103.963 152.752 105.686C154.525 107.383 155.412 109.549 155.412 112.184C155.412 114.844 154.474 117.035 152.6 118.758C150.75 120.455 148.382 121.304 145.494 121.304C142.479 121.304 140.047 120.177 138.198 117.922C136.348 115.642 135.424 112.665 135.424 108.992C135.424 104.255 136.589 100.594 138.92 98.01C141.276 95.4007 144.265 94.096 147.888 94.096C150.826 94.096 153.347 94.9573 155.45 96.68L153.322 99.986C151.776 98.6433 149.978 97.972 147.926 97.972C145.57 97.972 143.619 98.7827 142.074 100.404C140.528 102.025 139.692 104.103 139.566 106.636C140.199 105.547 141.086 104.685 142.226 104.052C143.391 103.419 144.658 103.102 146.026 103.102ZM141.656 115.87C142.694 116.883 143.999 117.39 145.57 117.39C147.14 117.39 148.432 116.883 149.446 115.87C150.459 114.857 150.966 113.565 150.966 111.994C150.991 110.449 150.484 109.182 149.446 108.194C148.432 107.181 147.14 106.674 145.57 106.674C143.999 106.674 142.694 107.181 141.656 108.194C140.642 109.182 140.136 110.449 140.136 111.994C140.136 113.565 140.642 114.857 141.656 115.87ZM159.73 121V117.314L169.382 109.068C172.244 106.636 173.676 104.394 173.676 102.342C173.676 101.025 173.258 99.9733 172.422 99.188C171.611 98.3773 170.509 97.972 169.116 97.972C167.469 97.972 166.215 98.542 165.354 99.682C164.492 100.797 164.15 102.279 164.328 104.128L160.034 103.824C159.806 101.037 160.553 98.7193 162.276 96.87C164.024 95.0207 166.304 94.096 169.116 94.096C171.852 94.096 174.043 94.856 175.69 96.376C177.362 97.8707 178.198 99.8593 178.198 102.342C178.198 103.963 177.704 105.559 176.716 107.13C175.728 108.675 174.17 110.309 172.042 112.032L165.962 117.086H178.16V121H159.73ZM204.212 121.304C201.375 121.304 199.044 120.569 197.22 119.1C195.422 117.631 194.522 115.68 194.522 113.248C194.522 111.728 194.966 110.373 195.852 109.182C196.739 107.991 197.917 107.155 199.386 106.674C198.246 106.167 197.334 105.42 196.65 104.432C195.966 103.419 195.624 102.329 195.624 101.164C195.624 99.112 196.41 97.4273 197.98 96.11C199.576 94.7673 201.654 94.096 204.212 94.096C206.72 94.096 208.747 94.7673 210.292 96.11C211.863 97.4273 212.648 99.112 212.648 101.164C212.648 102.329 212.306 103.419 211.622 104.432C210.938 105.42 210.026 106.167 208.886 106.674C210.381 107.155 211.572 107.991 212.458 109.182C213.345 110.373 213.788 111.728 213.788 113.248C213.788 115.68 212.889 117.631 211.09 119.1C209.292 120.569 206.999 121.304 204.212 121.304ZM204.212 105.04C205.479 105.04 206.505 104.698 207.29 104.014C208.076 103.33 208.481 102.431 208.506 101.316C208.506 100.201 208.114 99.3147 207.328 98.656C206.543 97.972 205.504 97.63 204.212 97.63C202.87 97.63 201.793 97.972 200.982 98.656C200.172 99.3147 199.779 100.201 199.804 101.316C199.804 102.431 200.21 103.33 201.02 104.014C201.831 104.698 202.895 105.04 204.212 105.04ZM204.174 117.58C205.745 117.58 206.999 117.187 207.936 116.402C208.899 115.591 209.38 114.527 209.38 113.21C209.38 111.867 208.899 110.803 207.936 110.018C206.999 109.207 205.745 108.802 204.174 108.802C202.578 108.802 201.299 109.207 200.336 110.018C199.374 110.803 198.892 111.867 198.892 113.21C198.892 114.527 199.374 115.591 200.336 116.402C201.299 117.187 202.578 117.58 204.174 117.58ZM223.461 121V99.53C221.84 100.949 219.788 101.911 217.305 102.418V98.428C219.965 97.8453 222.258 96.5027 224.183 94.4H227.641V121H223.461ZM242.85 121.304C240.139 121.304 237.897 120.595 236.124 119.176C234.351 117.757 233.337 115.87 233.084 113.514L237.188 112.868C237.365 114.236 237.973 115.338 239.012 116.174C240.051 116.985 241.33 117.39 242.85 117.39C244.471 117.39 245.776 116.947 246.764 116.06C247.752 115.148 248.246 113.957 248.246 112.488C248.246 110.968 247.777 109.79 246.84 108.954C245.903 108.093 244.623 107.662 243.002 107.662C241.837 107.662 240.849 107.941 240.038 108.498L238.214 105.61L245.966 98.276H233.844V94.4H251.21V98.086L244.066 104.698C246.65 104.546 248.74 105.192 250.336 106.636C251.957 108.08 252.768 110.069 252.768 112.602C252.768 115.211 251.856 117.314 250.032 118.91C248.233 120.506 245.839 121.304 242.85 121.304ZM262.218 121V99.53C260.597 100.949 258.545 101.911 256.062 102.418V98.428C258.722 97.8453 261.015 96.5027 262.94 94.4H266.398V121H262.218ZM271.993 121V117.314L281.645 109.068C284.508 106.636 285.939 104.394 285.939 102.342C285.939 101.025 285.521 99.9733 284.685 99.188C283.874 98.3773 282.772 97.972 281.379 97.972C279.732 97.972 278.478 98.542 277.617 99.682C276.756 100.797 276.414 102.279 276.591 104.128L272.297 103.824C272.069 101.037 272.816 98.7193 274.539 96.87C276.287 95.0207 278.567 94.096 281.379 94.096C284.115 94.096 286.306 94.856 287.953 96.376C289.625 97.8707 290.461 99.8593 290.461 102.342C290.461 103.963 289.967 105.559 288.979 107.13C287.991 108.675 286.433 110.309 284.305 112.032L278.225 117.086H290.423V121H271.993ZM304.622 121.304C301.911 121.304 299.669 120.595 297.896 119.176C296.123 117.757 295.109 115.87 294.856 113.514L298.96 112.868C299.137 114.236 299.745 115.338 300.784 116.174C301.823 116.985 303.102 117.39 304.622 117.39C306.243 117.39 307.548 116.947 308.536 116.06C309.524 115.148 310.018 113.957 310.018 112.488C310.018 110.968 309.549 109.79 308.612 108.954C307.675 108.093 306.395 107.662 304.774 107.662C303.609 107.662 302.621 107.941 301.81 108.498L299.986 105.61L307.738 98.276H295.616V94.4H312.982V98.086L305.838 104.698C308.422 104.546 310.512 105.192 312.108 106.636C313.729 108.08 314.54 110.069 314.54 112.602C314.54 115.211 313.628 117.314 311.804 118.91C310.005 120.506 307.611 121.304 304.622 121.304ZM332.402 121V115.034H318.722V111.158L331.908 94.4H336.848V111.158H340.42V115.034H336.848V121H332.402ZM323.396 111.158H332.402V99.644L323.396 111.158ZM343.97 121V117.314L353.622 109.068C356.485 106.636 357.916 104.394 357.916 102.342C357.916 101.025 357.498 99.9733 356.662 99.188C355.852 98.3773 354.75 97.972 353.356 97.972C351.71 97.972 350.456 98.542 349.594 99.682C348.733 100.797 348.391 102.279 348.568 104.128L344.274 103.824C344.046 101.037 344.794 98.7193 346.516 96.87C348.264 95.0207 350.544 94.096 353.356 94.096C356.092 94.096 358.284 94.856 359.93 96.376C361.602 97.8707 362.438 99.8593 362.438 102.342C362.438 103.963 361.944 105.559 360.956 107.13C359.968 108.675 358.41 110.309 356.282 112.032L350.202 117.086H362.4V121H343.97ZM376.599 121.304C373.889 121.304 371.647 120.595 369.873 119.176C368.1 117.757 367.087 115.87 366.833 113.514L370.937 112.868C371.115 114.236 371.723 115.338 372.761 116.174C373.8 116.985 375.079 117.39 376.599 117.39C378.221 117.39 379.525 116.947 380.513 116.06C381.502 115.148 381.996 113.957 381.996 112.488C381.996 110.968 381.527 109.79 380.59 108.954C379.652 108.093 378.373 107.662 376.751 107.662C375.586 107.662 374.598 107.941 373.787 108.498L371.963 105.61L379.715 98.276H367.593V94.4H384.96V98.086L377.815 104.698C380.399 104.546 382.489 105.192 384.086 106.636C385.707 108.08 386.518 110.069 386.518 112.602C386.518 115.211 385.606 117.314 383.781 118.91C381.983 120.506 379.589 121.304 376.599 121.304ZM404.38 121V115.034H390.7V111.158L403.886 94.4H408.826V111.158H412.398V115.034H408.826V121H404.38ZM395.374 111.158H404.38V99.644L395.374 111.158ZM426.199 121.304C423.589 121.304 421.398 120.645 419.625 119.328C417.877 117.985 416.825 116.187 416.471 113.932L420.537 113.21C420.79 114.477 421.411 115.49 422.399 116.25C423.387 117.01 424.603 117.39 426.047 117.39C427.592 117.39 428.833 116.909 429.771 115.946C430.733 114.983 431.215 113.717 431.215 112.146C431.215 110.525 430.721 109.245 429.733 108.308C428.745 107.371 427.415 106.902 425.743 106.902C423.463 106.902 421.677 107.865 420.385 109.79L417.155 109.106L419.283 94.4H433.761V98.276H422.551L421.487 105.306C422.956 103.963 424.691 103.292 426.693 103.292C429.403 103.292 431.582 104.103 433.229 105.724C434.875 107.345 435.699 109.486 435.699 112.146C435.699 114.907 434.837 117.124 433.115 118.796C431.392 120.468 429.087 121.304 426.199 121.304Z" fill="white"/>
<path d="M61.3615 38.192C58.8975 38.192 56.8575 37.384 55.2415 35.768C53.6415 34.136 52.8415 32.08 52.8415 29.6C52.8415 27.12 53.6415 25.072 55.2415 23.456C56.8575 21.824 58.8975 21.008 61.3615 21.008C63.8095 21.008 65.8335 21.824 67.4335 23.456C69.0495 25.072 69.8575 27.12 69.8575 29.6C69.8575 32.08 69.0495 34.136 67.4335 35.768C65.8335 37.384 63.8095 38.192 61.3615 38.192ZM57.5935 33.728C58.5855 34.816 59.8415 35.36 61.3615 35.36C62.8815 35.36 64.1295 34.824 65.1055 33.752C66.0815 32.664 66.5695 31.28 66.5695 29.6C66.5695 27.92 66.0815 26.536 65.1055 25.448C64.1295 24.36 62.8815 23.816 61.3615 23.816C59.8415 23.816 58.5855 24.368 57.5935 25.472C56.6175 26.56 56.1295 27.936 56.1295 29.6C56.1295 31.264 56.6175 32.64 57.5935 33.728ZM72.8886 42.368V25.904H75.9126V27.296C76.2646 26.816 76.7526 26.432 77.3766 26.144C78.0166 25.856 78.7286 25.712 79.5126 25.712C81.2406 25.712 82.6086 26.288 83.6166 27.44C84.6246 28.576 85.1286 30.08 85.1286 31.952C85.1286 33.808 84.5926 35.312 83.5206 36.464C82.4646 37.616 81.0566 38.192 79.2966 38.192C77.7926 38.192 76.6646 37.728 75.9126 36.8V42.368H72.8886ZM78.9366 35.576C79.8966 35.576 80.6646 35.248 81.2406 34.592C81.8326 33.92 82.1286 33.04 82.1286 31.952C82.1286 30.864 81.8326 29.992 81.2406 29.336C80.6646 28.664 79.8966 28.328 78.9366 28.328C77.9606 28.328 77.1766 28.664 76.5846 29.336C76.0086 29.992 75.7206 30.864 75.7206 31.952C75.7206 33.04 76.0086 33.92 76.5846 34.592C77.1766 35.248 77.9606 35.576 78.9366 35.576ZM92.749 25.712C94.365 25.712 95.653 26.144 96.613 27.008C97.589 27.856 98.077 29.064 98.077 30.632V38H95.149V36.248C94.813 36.84 94.309 37.312 93.637 37.664C92.981 38.016 92.277 38.192 91.525 38.192C90.341 38.192 89.373 37.856 88.621 37.184C87.869 36.496 87.493 35.632 87.493 34.592C87.493 32.288 89.293 30.944 92.893 30.56L95.149 30.344V30.224C95.149 29.536 94.933 29 94.501 28.616C94.069 28.216 93.485 28.016 92.749 28.016C92.093 28.016 91.541 28.208 91.093 28.592C90.661 28.976 90.413 29.488 90.349 30.128L87.661 29.648C87.853 28.464 88.421 27.512 89.365 26.792C90.325 26.072 91.453 25.712 92.749 25.712ZM92.197 35.96C93.109 35.96 93.829 35.656 94.357 35.048C94.885 34.44 95.149 33.68 95.149 32.768V32.504L92.845 32.768C92.061 32.864 91.461 33.064 91.045 33.368C90.629 33.672 90.421 34.048 90.421 34.496C90.421 34.928 90.581 35.28 90.901 35.552C91.221 35.824 91.653 35.96 92.197 35.96ZM109.934 38L106.214 32.672L104.798 34.064V38H101.75V21.008H104.798V30.2L109.358 25.904H113.198L108.278 30.68L113.582 38H109.934ZM122.529 38V21.2H126.201L131.337 33.368L136.473 21.2H140.145V38H137.073V27.272L132.561 38H130.113L125.601 27.272V38H122.529ZM148.574 25.712C150.19 25.712 151.478 26.144 152.438 27.008C153.414 27.856 153.902 29.064 153.902 30.632V38H150.974V36.248C150.638 36.84 150.134 37.312 149.462 37.664C148.806 38.016 148.102 38.192 147.35 38.192C146.166 38.192 145.198 37.856 144.446 37.184C143.694 36.496 143.318 35.632 143.318 34.592C143.318 32.288 145.118 30.944 148.718 30.56L150.974 30.344V30.224C150.974 29.536 150.758 29 150.326 28.616C149.894 28.216 149.31 28.016 148.574 28.016C147.918 28.016 147.366 28.208 146.918 28.592C146.486 28.976 146.238 29.488 146.174 30.128L143.486 29.648C143.678 28.464 144.246 27.512 145.19 26.792C146.15 26.072 147.278 25.712 148.574 25.712ZM148.022 35.96C148.934 35.96 149.654 35.656 150.182 35.048C150.71 34.44 150.974 33.68 150.974 32.768V32.504L148.67 32.768C147.886 32.864 147.286 33.064 146.87 33.368C146.454 33.672 146.246 34.048 146.246 34.496C146.246 34.928 146.406 35.28 146.726 35.552C147.046 35.824 147.478 35.96 148.022 35.96ZM161.069 23.528C160.701 23.88 160.245 24.056 159.701 24.056C159.157 24.056 158.709 23.88 158.357 23.528C158.005 23.16 157.829 22.712 157.829 22.184C157.829 21.656 158.005 21.216 158.357 20.864C158.725 20.512 159.173 20.336 159.701 20.336C160.245 20.336 160.701 20.52 161.069 20.888C161.437 21.24 161.621 21.672 161.621 22.184C161.621 22.712 161.437 23.16 161.069 23.528ZM156.749 42.56L155.981 42.512L155.909 39.896C156.085 39.912 156.245 39.92 156.389 39.92C157.573 39.92 158.165 39.184 158.165 37.712V25.904H161.189V38.12C161.189 39.464 160.781 40.536 159.965 41.336C159.165 42.152 158.093 42.56 156.749 42.56ZM167.668 23.528C167.3 23.88 166.844 24.056 166.3 24.056C165.756 24.056 165.308 23.88 164.956 23.528C164.604 23.16 164.428 22.712 164.428 22.184C164.428 21.656 164.604 21.216 164.956 20.864C165.308 20.512 165.756 20.336 166.3 20.336C166.844 20.336 167.3 20.52 167.668 20.888C168.036 21.24 168.22 21.672 168.22 22.184C168.22 22.712 168.036 23.16 167.668 23.528ZM164.788 38V25.904H167.812V38H164.788Z" fill="black"/>
</svg>
